<svg id="Layer_1" data-name="Layer 1" xmlns="http://www.w3.org/2000/svg" xmlns:xlink="http://www.w3.org/1999/xlink" viewBox="0 0 63.99 41.42"><defs><clipPath id="clip-path" transform="translate(0 -6.48)"><path d="M19.07,11.76V23.3H13.55v5.78H8.93l0,.5A15.5,15.5,0,0,0,10.4,38.1l.42.76a10.45,10.45,0,0,0,.86,1.3c.31.42.43.65.62.93,3.34,3.74,8.31,5.55,14.05,5.55,12.71,0,23.49-5.63,28.26-18.28,3.39.35,6.64-.52,8.12-3.41a8,8,0,0,0-7.13-.05l4.62-13.14L42.16,23.3H36.38V11.76Z" fill="none"/></clipPath></defs><title>docker-icon</title><path d="M37,22.74h5.73V28.6h2.91a12.55,12.55,0,0,0,4-.67,9.8,9.8,0,0,0,1.94-.87,7.38,7.38,0,0,1-1.36-3.71,7.87,7.87,0,0,1,1.41-5.52l.6-.7.72.58a9.12,9.12,0,0,1,3.6,5.8,8.77,8.77,0,0,1,6.66.62l.79.45-.41.81c-1.62,3.17-5,4.15-8.33,4-5,12.37-15.79,18.23-28.9,18.23-6.78,0-13-2.53-16.53-8.54-.21-.38-.38-.77-.57-1.15a16.6,16.6,0,0,1-1.33-8.43L8,28.62h4.9V22.74h5.73V17H30.11V11.27H37V22.74" transform="translate(0 -6.48)" fill="#394d54"/><g clip-path="url(#clip-path)"><g id="B"><g id="C"><path d="M31.08,6.48h5v5h-5Z" transform="translate(0 -6.48)" fill="#00acd3"/><path d="M31.08,12.22h5v5h-5Z" transform="translate(0 -6.48)" fill="#20c2ef"/><path id="D" d="M31.69,11V6.89M32.44,11V6.89M33.19,11V6.89M33.94,11V6.89M34.7,11V6.89M35.44,11V6.89" transform="translate(0 -6.48)" stroke="#394d54" stroke-width="1.56"/><path d="M31.69,16.77V12.63m.75,4.14V12.63m.75,4.14V12.63m.75,4.14V12.63m.76,4.14V12.63m.74,4.14V12.63" transform="translate(0 -6.48)" stroke="#394d54" stroke-width="1.56"/></g><path d="M36.82,17.19h5v-5h-5Z" transform="translate(0 -6.48)" fill="#00acd3"/><path d="M36.82,11.45h5v-5h-5Z" transform="translate(0 -6.48)" fill="#20c2ef"/><path d="M37.43,12.63v4.15m.74-4.15v4.15m.76-4.15v4.15m.75-4.15v4.15m.75-4.15v4.15m.75-4.15v4.15" transform="translate(0 -6.48)" stroke="#394d54" stroke-width="1.56"/><path d="M37.43,6.89V11m.74-4.15V11m.76-4.15V11m.75-4.15V11m.75-4.15V11m.75-4.15V11" transform="translate(0 -6.48)" stroke="#394d54" stroke-width="1.56"/></g><path d="M8.13,18h5v5h-5Z" transform="translate(0 -6.48)" fill="#00acd3"/><path d="M8.13,23.69h5v5h-5Z" transform="translate(0 -6.48)" fill="#20c2ef"/><path d="M8.74,22.51V18.37m.74,4.14V18.37m.76,4.14V18.37M11,22.51V18.37m.76,4.14V18.37m.74,4.14V18.37" transform="translate(0 -6.48)" stroke="#394d54" stroke-width="1.56"/><path d="M8.74,28.25V24.11m.74,4.14V24.11m.76,4.14V24.11M11,28.25V24.11m.76,4.14V24.11m.74,4.14V24.11" transform="translate(0 -6.48)" stroke="#394d54" stroke-width="1.56"/><path d="M13.87,28.67h5v-5h-5Z" transform="translate(0 -6.48)" fill="#00acd3"/><path d="M13.87,22.93h5V18h-5Z" transform="translate(0 -6.48)" fill="#20c2ef"/><path d="M14.48,24.11v4.14m.74-4.14v4.14M16,24.11v4.14m.75-4.14v4.14m.75-4.14v4.14m.75-4.14v4.14" transform="translate(0 -6.48)" stroke="#394d54" stroke-width="1.56"/><path d="M14.48,18.37v4.14m.74-4.14v4.14M16,18.37v4.14m.75-4.14v4.14m.75-4.14v4.14m.75-4.14v4.14" transform="translate(0 -6.48)" stroke="#394d54" stroke-width="1.56"/><path d="M19.6,18h5v5h-5Z" transform="translate(0 -6.48)" fill="#00acd3"/><path d="M19.6,23.69h5v5h-5Z" transform="translate(0 -6.48)" fill="#20c2ef"/><path d="M20.21,22.51V18.37M21,22.51V18.37m.75,4.14V18.37m.76,4.14V18.37m.75,4.14V18.37M24,22.51V18.37" transform="translate(0 -6.48)" stroke="#394d54" stroke-width="1.56"/><path d="M20.21,28.25V24.11M21,28.25V24.11m.75,4.14V24.11m.76,4.14V24.11m.75,4.14V24.11M24,28.25V24.11" transform="translate(0 -6.48)" stroke="#394d54" stroke-width="1.56"/><path d="M25.34,28.67h5v-5h-5Z" transform="translate(0 -6.48)" fill="#00acd3"/><path d="M25.34,22.93h5V18h-5Z" transform="translate(0 -6.48)" fill="#20c2ef"/><path d="M26,24.11v4.14m.75-4.14v4.14m.75-4.14v4.14m.75-4.14v4.14M29,24.11v4.14m.74-4.14v4.14" transform="translate(0 -6.48)" stroke="#394d54" stroke-width="1.56"/><path d="M26,18.37v4.14m.75-4.14v4.14m.75-4.14v4.14m.75-4.14v4.14M29,18.37v4.14m.74-4.14v4.14" transform="translate(0 -6.48)" stroke="#394d54" stroke-width="1.56"/><path d="M31.08,18h5v5h-5Z" transform="translate(0 -6.48)" fill="#00acd3"/><path d="M31.08,23.69h5v5h-5Z" transform="translate(0 -6.48)" fill="#20c2ef"/><path d="M31.69,22.51V18.37m.75,4.14V18.37m.75,4.14V18.37m.75,4.14V18.37m.76,4.14V18.37m.74,4.14V18.37" transform="translate(0 -6.48)" stroke="#394d54" stroke-width="1.56"/><path d="M31.69,28.25V24.11m.75,4.14V24.11m.75,4.14V24.11m.75,4.14V24.11m.76,4.14V24.11m.74,4.14V24.11" transform="translate(0 -6.48)" stroke="#394d54" stroke-width="1.56"/><path d="M36.82,28.67h5v-5h-5Z" transform="translate(0 -6.48)" fill="#00acd3"/><path d="M36.82,22.93h5V18h-5Z" transform="translate(0 -6.48)" fill="#20c2ef"/><path d="M37.43,24.11v4.14m.74-4.14v4.14m.76-4.14v4.14m.75-4.14v4.14m.75-4.14v4.14m.75-4.14v4.14" transform="translate(0 -6.48)" stroke="#394d54" stroke-width="1.56"/><path d="M37.43,18.37v4.14m.74-4.14v4.14m.76-4.14v4.14m.75-4.14v4.14m.75-4.14v4.14m.75-4.14v4.14" transform="translate(0 -6.48)" stroke="#394d54" stroke-width="1.56"/><path d="M55.6,24.91c.38-3-1.86-5.34-3.24-6.46-1.6,1.85-1.85,6.7.66,8.74a12.09,12.09,0,0,1-7.37,2.37H8.53c-.29,3.15,0,18.34,0,18.34H63L62.73,25a8,8,0,0,0-7.13,0" transform="translate(0 -6.48)" fill="#17b5eb"/><path d="M8.53,33.59V47.9H63V33.59" transform="translate(0 -6.48)" fill-opacity="0.17"/><path d="M27.91,46.62a12.13,12.13,0,0,1-6.3-6.2l-10.32.45,5.27,7,11.35-1.28" transform="translate(0 -6.48)" fill="#d4edf1"/><path d="M55.83,24.79h0A50,50,0,0,1,35,40.54c-7.19,2.76-13.46,2.78-17.79.56l-1.38-.83c-3.17-2.22-4.95-5.89-4.8-10.72H8.53V47.9H63V23.81H56.71Z" transform="translate(0 -6.48)" fill-opacity="0.09"/></g><path d="M11.45,40.63c3.55.19,7.35.23,10.66-.81" transform="translate(0 -6.48)" fill="none" stroke="#394d54" stroke-linecap="round" stroke-width="0.63"/><path d="M25.64,38.1a1.38,1.38,0,1,1-1.37-1.37h0A1.37,1.37,0,0,1,25.64,38.1Z" transform="translate(0 -6.48)" fill="#d4edf1"/><path d="M24.64,37.18a.41.41,0,0,0-.21.35.4.4,0,0,0,.4.4.41.41,0,0,0,.36-.21,1,1,0,1,1-.91-.6,1.13,1.13,0,0,1,.36.06ZM0,33.88H63.82c-1.39-.35-4.4-.81-3.9-2.65-2.53,2.93-8.62,2-10.16.61-1.71,2.49-11.68,1.54-12.38-.41-2.14,2.52-8.8,2.52-10.94,0-.7,1.94-10.67,2.88-12.37.41-1.55,1.43-7.64,2.32-10.17-.61.5,1.82-2.51,2.31-3.9,2.65" transform="translate(0 -6.48)" fill="#394d54"/></svg>