<svg id="Layer_1" data-name="Layer 1" xmlns="http://www.w3.org/2000/svg" xmlns:xlink="http://www.w3.org/1999/xlink" viewBox="0 0 64.01 56.09"><defs><clipPath id="clip-path" transform="translate(0.01 -3.91)"><rect x="-6.36" y="-3.56" width="77.08" height="76.86" fill="none"/></clipPath><clipPath id="clip-path-2" transform="translate(0.01 -3.91)"><path d="M37.08,53.5c.12-.4.14-1-1.09-.74a4.33,4.33,0,0,0-3.51,4.38l-.08,7.48h-.8l-.08-7.48A4.33,4.33,0,0,0,28,52.76c-1.22-.27-1.21.34-1.09.73-1.2-2-4.42-1.77-4.42-1.77-1.12.39-.08,1.11-.08,1.11a3.12,3.12,0,0,1,1.92,2.55v5.4L24.52,65a5.56,5.56,0,0,0,2.35,3.6H37.15c1.24-.84,2.51-2.43,2.51-5.44V55.38a3.12,3.12,0,0,1,1.92-2.55s1-.72-.08-1.11h-.36c-.88,0-3.11.16-4.06,1.79m-9.71,7.69V55.3a3.78,3.78,0,0,0-.27-1.47c1.15.9,1.23,3.15,1.23,3.15v7.36c-1.15-.82-1-3.15-1-3.15M35.68,57s.07-2.25,1.23-3.15a3.6,3.6,0,0,0-.28,1.47v5.89s.2,2.17-1,3.06Z" fill="none"/></clipPath></defs><title>github-icon</title><g clip-path="url(#clip-path)"><path id="D" d="M50.21,53.73c0,3.46-8,6.27-18,6.27s-18-2.81-18-6.27,8-6.27,18-6.27,18,2.81,18,6.27" transform="translate(0.01 -3.91)" fill="#a0dcf2"/></g><g clip-path="url(#clip-path-2)"><path d="M50.21,53.73c0,3.46-8,6.27-18,6.27s-18-2.81-18-6.27,8-6.27,18-6.27,18,2.81,18,6.27" transform="translate(0.01 -3.91)" fill="#82bde7"/></g><g clip-path="url(#clip-path)"><path d="M11.73,35.3l-.52,1.8a.64.64,0,0,0,.48.77c.65,0,.59-.62.55-.81l-.51-1.76Z" transform="translate(0.01 -3.91)" fill="#a0dcf2"/><path d="M64,27.74l0-.23a61.82,61.82,0,0,0-14-.93,25.37,25.37,0,0,0,.7-6.63,11.7,11.7,0,0,0-3.52-8.56A11.08,11.08,0,0,0,46.73,4s-2.46-.78-8,2.93a29.2,29.2,0,0,0-14.37.18C18.6,3.18,16.07,4,16.07,4a10.69,10.69,0,0,0-.32,7.94,11.44,11.44,0,0,0-3.13,8,19.71,19.71,0,0,0,1,6.62A61.25,61.25,0,0,0,0,27.51l.05.23a61,61,0,0,1,13.63-.93A12,12,0,0,0,14.18,28,62.21,62.21,0,0,0,.09,30l.07.23a61.3,61.3,0,0,1,14.15-2c1.93,3.6,5.75,5.92,12.55,6.65a5.57,5.57,0,0,0-2.35,3.61c-1.31.62-5.47,2.15-8-2.13a5.61,5.61,0,0,0-4.07-2.75s-2.6,0-.18,1.62c0,0,1.73.81,2.93,3.88,0,0,1.56,5.22,9.11,3.55V48a3.12,3.12,0,0,1-1.92,2.55s-1,.71.08,1.11c0,0,4.87.4,4.87-3.58V42.23s-.19-2.34,1-3.15v9.68S28.24,51.07,27,52c0,0-.8,1.43,1,1a4.33,4.33,0,0,0,3.51-4.38l.08-9.79h.8l.08,9.79A4.33,4.33,0,0,0,36,53c1.76.4,1-1,1-1-1.2-.88-1.28-3.19-1.28-3.19V39.17c1.15.89,1,3.06,1,3.06v5.89c0,4,4.87,3.59,4.87,3.59,1.11-.4.08-1.12.08-1.12a3.11,3.11,0,0,1-1.92-2.54V40.32c0-3-1.27-4.6-2.51-5.44,7.24-.72,10.72-3.05,12.32-6.68a61.85,61.85,0,0,1,14.36,2l.06-.23a61.62,61.62,0,0,0-14.31-2c.15-.37.28-.75.4-1.14a60.77,60.77,0,0,1,14,.91" transform="translate(0.01 -3.91)" fill="#292929"/><path d="M43.66,19.78a6.74,6.74,0,0,1,2.48,4.95c0,8.57-6.41,8.8-14.31,8.8s-14.3-1.18-14.3-8.8A6.72,6.72,0,0,1,20,19.81c2.57-2.34,6.92-1.1,11.86-1.1s9.25-1.25,11.83,1.08" transform="translate(0.01 -3.91)" fill="#f5cdb5"/><path d="M27.07,25.17c0,2.36-1.33,4.27-3,4.27s-3-1.91-3-4.27,1.33-4.27,3-4.27,3,1.91,3,4.27" transform="translate(0.01 -3.91)" fill="#fff"/><path d="M26.12,25.22c0,1.58-.89,2.85-2,2.85s-2-1.27-2-2.85.89-2.84,2-2.84,2,1.27,2,2.84" transform="translate(0.01 -3.91)" fill="#b1645a"/><path d="M43,25.17c0,2.36-1.33,4.27-3,4.27s-3-1.91-3-4.27,1.33-4.27,3-4.27,3,1.91,3,4.27" transform="translate(0.01 -3.91)" fill="#fff"/><path d="M42.09,25.22c0,1.58-.9,2.85-2,2.85s-2-1.27-2-2.85.89-2.84,2-2.84,2,1.27,2,2.84M32.62,29a.75.75,0,0,1-.75.74.74.74,0,1,1,0-1.48.75.75,0,0,1,.75.74m-2.48,1.88a.24.24,0,1,1,.45-.16,1.35,1.35,0,0,0,2.55,0,.25.25,0,0,1,.31-.15.24.24,0,0,1,.14.31,1.83,1.83,0,0,1-3.45,0" transform="translate(0.01 -3.91)" fill="#b1645a"/><path d="M13.64,34.24c0,.19-.24.35-.52.35s-.52-.16-.52-.35.23-.36.52-.36.52.16.52.36m1.43.79c0,.2-.23.36-.52.36S14,35.23,14,35s.23-.36.51-.36.52.16.52.36m.88,1c0,.2-.23.36-.52.36s-.52-.16-.52-.36.24-.36.52-.36.52.16.52.36m.8,1.2c0,.2-.23.36-.52.36s-.52-.16-.52-.36.23-.36.52-.36.52.16.52.36m.88,1.12c0,.19-.23.35-.52.35s-.52-.16-.52-.35.23-.36.52-.36.52.16.52.36m1.2.95c0,.2-.24.36-.52.36s-.52-.16-.52-.36S18,39,18.31,39s.52.16.52.36" transform="translate(0.01 -3.91)" fill="#c5e6da"/><path id="E" d="M20.5,40c0,.19-.23.36-.52.36s-.52-.16-.52-.36.24-.36.52-.36.52.16.52.36" transform="translate(0.01 -3.91)" fill="#c5e6da"/><path d="M22.17,40c0,.19-.23.36-.52.36s-.52-.16-.52-.36.24-.36.52-.36.52.16.52.36" transform="translate(0.01 -3.91)" fill="#c5e6da"/><path d="M23.87,39.69c0,.2-.24.36-.52.36s-.52-.16-.52-.36.23-.36.52-.36.52.16.52.36" transform="translate(0.01 -3.91)" fill="#c5e6da"/></g></svg>