<svg id="Ebene_1" data-name="Ebene 1" xmlns="http://www.w3.org/2000/svg" viewBox="0 0 320.68 347.89">
    <path d="M365,232.14l-50.94-88-200-5.87L61.55,245.52c1.68,3,.72,6.87.65,10.42a59.25,59.25,0,0,0,2.49,17.75,89.16,89.16,0,0,0,6.18,6.53c3.85,3.89,6.78,9.88,12.1,11.91a1.35,1.35,0,0,1,1,.22,5.07,5.07,0,0,0,.61.32c.6.19,1.19.35,1.79.49l.5.1a29.17,29.17,0,0,0,3.68.24c2.53.05,5-.12,7.57,0a1.48,1.48,0,0,1,.92.33c3.86-.54,7.79-1.22,11.65-.44a1.36,1.36,0,0,1,.78.41l.58,0,12.17-3.21a18.87,18.87,0,0,0,5.39-3.39c1-1.39,3-2,4.37-.35a3.65,3.65,0,0,1,.86,1.87v0a4.85,4.85,0,0,1-.18,1.94,4.47,4.47,0,0,1-.16.57,2.94,2.94,0,0,1-1.7,1.81c1.26,6.57.18,13.21.68,19.87.54,7.24,2.09,14.34,2.36,21.6a7.15,7.15,0,0,1,.48,2.14c2,3.44,4.26,6.72,6.11,10.24l12.46,10.84a9.84,9.84,0,0,1,2.87,1.68h24L216,336.77l21.33,24.65,4.22.08a1.37,1.37,0,0,1,.69-1.5,5.71,5.71,0,0,1,1.54-.64v0a5.24,5.24,0,0,0,.15-.79c.15-1,1.46-1.23,2.22-.88a50.37,50.37,0,0,1,5,2.81c1,.38,1.91.76,2.87,1.08A72.55,72.55,0,0,0,280.6,353c16-8.63,18.44-20.89,18.44-20.89l1.41-14.9c-.72-5-1.95-10.64.2-15.12a4.57,4.57,0,0,1,0-1.91,1.28,1.28,0,0,1-.34-.93,6.11,6.11,0,0,1,.41-1.94,11.42,11.42,0,0,1-.39-3.9,16.23,16.23,0,0,1,.16-7.11.15.15,0,0,0,0-.07,38.48,38.48,0,0,1,.12-3.87,28.67,28.67,0,0,1-.17-3.06,17.16,17.16,0,0,1,.15-2.52c0-.56,0-1.12-.09-1.67a36.56,36.56,0,0,1,0-9.52,11.2,11.2,0,0,1,.46-5.83,6,6,0,0,1-.48-5.17c0-.08.05-.15.07-.22a5.25,5.25,0,0,1,.29-2.39,1.92,1.92,0,0,1-.07-.48,1.27,1.27,0,0,1-.55-.79c-.38-2.75,2.15-3.44,4.24-4.28,1-.39,1.84-1.11,2.95-1.1a2.18,2.18,0,0,1,2.1,1.71,11.65,11.65,0,0,1,.1,3c0,1.54,0,3.09.06,4.64.07,3.37.17,6.75.35,10.13.18,3.54.44,7.08.84,10.6a35.86,35.86,0,0,0,.8,5.05c.34,1.34.85,2.65,1.1,4a33.08,33.08,0,0,0,.75,4l.17.19a1.51,1.51,0,0,1,1.28.1,40.72,40.72,0,0,1,6.7,4.7l.54,0a3,3,0,0,1,2.44-.53c3.31.63,6.74-.54,10-.92,3.53-.4,7,.24,10.5.44a25,25,0,0,0,5.13-.28,1.3,1.3,0,0,1,.68-.87c2.05-1,4.28-1.73,6.45-2.6a14.51,14.51,0,0,1,3-2.57c.46-.32.94-.62,1.41-.93a67.6,67.6,0,0,0,7.58-11.42c.59-2.61,1-5.17,1.47-7.28a118.1,118.1,0,0,0,1.59-12.82C369.62,238.15,365,232.14,365,232.14Z"
          transform="translate(-56.78 -29.91)" fill="#70d344"/>
    <path d="M268.6,358.23l0,0A59.19,59.19,0,0,1,256.78,351c-11.75-9.37-29.27-26.12-38.64-48.45,0,0-26.48,49-55.18,54.26-1.42.26-2.64.49-3.71.71a54.58,54.58,0,0,1,5.3,1.72c7.46-.43,16-1.16,16-1.16s39.17-16,38.89-23.74,20.88,17.7,20.88,17.7L268,358.64A3.73,3.73,0,0,1,268.6,358.23Z"
          transform="translate(-56.78 -29.91)" fill="#3e662c"/>
    <path d="M235.6,279.7a2.17,2.17,0,0,1-.17-.42l-.06-.13c-.12-.29-.25-.58-.38-.87-.24-.55-.5-1.1-.77-1.64a2.51,2.51,0,0,1-.22-.74,1.76,1.76,0,0,0-.2-.09,60.26,60.26,0,0,0-9.59-2.88,23,23,0,0,1-6.8-1.11l-.18,0a2.12,2.12,0,0,1-1.09.74c-2.18.36-4.39.41-6.57.69l-.25,0a2.45,2.45,0,0,1-1.62-.22,1.44,1.44,0,0,1-.31-.22c-2.82,1.26-5.5,2.88-8.4,3.93a2,2,0,0,1-.26,1.36c-.17.28-.33.56-.48.86l-.06.13c0,.14-.11.29-.15.41a11.75,11.75,0,0,0-.48,2v0h0c0,.19,0,.37-.05.55,0,.37,0,.74,0,1.11a16.14,16.14,0,0,0,.13,2.2,1.67,1.67,0,0,1-.45,1.31c.27,1.13.6,2.2.91,3.13A37.39,37.39,0,0,0,203.29,300l.07,0a36.36,36.36,0,0,0,16.17,3.36,2.1,2.1,0,0,1,2.05,1.69c1.58-.58,3.11-1.24,4.57-1.91.8-.37,1.61-.75,2.42-1.15l.51-.64a2.1,2.1,0,0,1,1.37-1.57l.07,0a18.76,18.76,0,0,1,2.07-1.81,2.1,2.1,0,0,1,.57-.89,12.57,12.57,0,0,1,1.61-1.34,15,15,0,0,0,1-4.91c.18-3.12,0-6.34.44-9.45C236,280.79,235.82,280.24,235.6,279.7Z"
          transform="translate(-56.78 -29.91)" fill="#b86853"/>
    <path d="M89.37,192.63s122.34,86.45,258.18.82L319.28,136.9l-202.64,6Z" transform="translate(-56.78 -29.91)"
          fill="#3e662c"/>
    <path d="M125.35,228.74s-9.88,66.95-42.75,63.89l47.72-.6Z" transform="translate(-56.78 -29.91)" fill="#3e662c"/>
    <polygon
            points="134.98 326.55 161.07 304.03 185.15 325.89 184.34 331.93 179.11 337.6 167.66 342.47 157.16 343.98 151.18 342.77 145.52 340.44 135.78 332.56 134 329 134.98 326.55"
            fill="#b86853" stroke="#000" stroke-miterlimit="10"/>
    <path d="M309.72,227.15s9.88,67,42.76,63.88l-47.72-.59Z" transform="translate(-56.78 -29.91)" fill="#3e662c"/>
    <polygon points="66.75 180.09 91.88 193.83 104.13 209.06 96.61 217.57 75.71 213.08 64.99 200.92 66.75 180.09"
             fill="#fff" stroke="#000" stroke-miterlimit="10"/>
    <polygon points="195.18 178.49 220.3 192.23 232.56 207.46 225.03 215.98 204.14 211.48 193.42 199.32 195.18 178.49"
             fill="#fff" stroke="#000" stroke-miterlimit="10"/>
    <path d="M186.06,357.45a32.16,32.16,0,0,0,21.21,18.94c9.22,2.69,19.71,1.59,27.83-3.67a32,32,0,0,0,12.76-15.92,3.77,3.77,0,0,0-2.62-4.61,3.85,3.85,0,0,0-4.62,2.62c-.13.36-.26.73-.41,1.08.07-.16.24-.5-.09.17s-.56,1.16-.88,1.72-.58,1-.9,1.5c-.17.27-.36.54-.54.8-.06.09-.69.93-.34.49a27.46,27.46,0,0,1-2.34,2.6q-.7.69-1.44,1.32l-.75.62c-.2.16-.2.17,0,0l-.48.34a27.42,27.42,0,0,1-2.82,1.79c-.46.25-.93.49-1.4.72l-.57.26c-.79.38.49-.17-.26.12a31.12,31.12,0,0,1-6,1.66l-.62.1c.84-.13.14,0-.08,0-.46,0-.92.09-1.39.12a32.2,32.2,0,0,1-3.26,0l-1.39-.08c-.24,0-1.79-.21-.85-.08-1-.14-2-.33-3.05-.57a30.41,30.41,0,0,1-3-.87c-.39-.13-.78-.28-1.16-.42-.13,0-1.08-.46-.25-.1l-.84-.38a42.81,42.81,0,0,1-5.12-3.07c-.5-.32.66.56-.09-.07l-.7-.58c-.43-.37-.84-.75-1.24-1.14a28.4,28.4,0,0,1-2.27-2.51c-.38-.47.5.72-.06-.09l-.54-.76c-.32-.48-.62-1-.91-1.45s-.56-1-.81-1.52c-.1-.19-.19-.38-.28-.57s-.17-.39-.26-.58c.17.41.18.41,0,0a3.87,3.87,0,0,0-4.62-2.62c-1.79.49-3.37,2.72-2.61,4.61Z"
          transform="translate(-56.78 -29.91)"/>
    <path d="M335.77,182.62c0-2.09-1.21-2.75-2.84-3-11.23-2-22.42-4.2-33.68-5.91-17-2.6-33.93-1.21-50.77,2.08-6.51,1.27-13,3.19-19.56,3.61a134.37,134.37,0,0,1-40.87-3.64c-9.17-2.23-18.61-3.23-28-4.4-10.14-1.26-20.29-.2-30.35,1.23-9.41,1.34-18.74,3.4-28.11,5.14a2.59,2.59,0,0,0-2.47,2.78c-.12,4.23-.35,8.45-.49,12.67a3,3,0,0,0,2.86,3.41c2,.06,2.56,1.39,2.9,3l.66,3.22c.22.64.4,1.3.56,2a31.05,31.05,0,0,1,1.63,5.63c.27.77.48,1.57.7,2.37a63.81,63.81,0,0,0,2.45,7.34,3.09,3.09,0,0,1,0,2.2c1.53,5.62,3.08,11.2,4.43,16.84s5.28,8.64,9.7,10.61a66.77,66.77,0,0,0,36.88,5.54c7.35-1,14.38-3,20.59-7.7a46.46,46.46,0,0,0,14-17.5c3.39-7.11,6-14.68,9.31-21.83,1.4-3,3.35-6.29,5.85-8,3.43-2.35,7.61-2.08,11.47-.14,3.53,1.78,5.06,5.83,6.11,9.08,1.89,5.84,3.29,11.81,5.88,17.43a57.39,57.39,0,0,0,11.15,16.58,41.15,41.15,0,0,0,20.52,11.56c13.26,3,26.32,1.49,39.32-2.36,8.33-2.46,13.61-8.34,16.49-16.9,2-6,3.43-12.27,4.93-18.48,1.18-4.91,2.05-9.91,3.11-14.85.43-2,1.24-3.6,3.52-3.69,1.62-.07,2.49-1.33,2.44-3.18C336,191.07,335.87,186.85,335.77,182.62Zm-230.12,4.6a8,8,0,0,1-2.74-.11l-.06-1.06,3.09-1.36.52.6C106.19,186,106,187.11,105.65,187.22Zm48.47,52.27c-.59,1.95-3.14,3.74-5.31,2.88-8.11-3.2-14.94-7.85-19.72-15-3-4.5,4.47-8.64,7.45-4.17a30.6,30.6,0,0,0,14.56,11.22C153.24,235.26,154.82,237.13,154.12,239.49Zm125.59.69c-9.58-1.22-19.59-3.84-24.78-12.35-2.81-4.61,4.65-8.76,7.45-4.17,3.49,5.72,10.9,7.44,17.33,8.26C285.14,232.61,285.19,240.88,279.71,240.18ZM321.84,179c0,.32-.07.64-.11,1-2.92.58-5.61-.81-8.34-1.74Zm4.56,16.28c-1.84-11.33-9.53-14.76-18.2-16.89C318.06,178.26,328.85,188.09,326.4,195.24Z"
          transform="translate(-56.78 -29.91)"/>
    <path d="M106.69,185.68a2,2,0,0,0,.33-2.4,2.61,2.61,0,0,0-1.53-1.13,2.26,2.26,0,0,0-2.18.53,1.5,1.5,0,0,0-.2.24,1.89,1.89,0,0,0-.2.27,2.6,2.6,0,0,0-.27,1.91,3.13,3.13,0,0,0,.36,1l.21.32a6.09,6.09,0,0,0,.46.55,1.59,1.59,0,0,0,.66.39,1.73,1.73,0,0,0,1.16-.16,1.45,1.45,0,0,0,.54-.53,2.42,2.42,0,0,0,.26-2.6,2.07,2.07,0,0,0-2.53-.89,1.75,1.75,0,0,0-1.06,1.19,1.77,1.77,0,0,0,.48,1.69,1.94,1.94,0,0,0,1.32.57,1.66,1.66,0,0,0,.87-.22,1.56,1.56,0,0,0,.61-.64,1.45,1.45,0,0,0,.21-.76,1.42,1.42,0,0,0-.21-.75,1.4,1.4,0,0,0-.54-.54,1.42,1.42,0,0,0-.75-.21,2.65,2.65,0,0,0-1,.09,5,5,0,0,0-.6.24l-.27.15a3.62,3.62,0,0,0-.9.89,1.1,1.1,0,0,0-.15.26,3,3,0,0,0-.24.61,1.5,1.5,0,0,0,1,1.84,2.78,2.78,0,0,0,1.44,0,2.77,2.77,0,0,0,1.1-.54,2.8,2.8,0,0,0,.8-.91,2.13,2.13,0,0,0,.25-.63,2.28,2.28,0,0,0,.08-.73,1.27,1.27,0,0,0-.13-.58,1.11,1.11,0,0,0-.31-.48,1.52,1.52,0,0,0-1.06-.44,1.5,1.5,0,0,0-1.06.44,1.44,1.44,0,0,0-.44,1.06V185l0-.4a1,1,0,0,1-.08.29l.15-.36a1.64,1.64,0,0,1-.16.29l.23-.31a1.33,1.33,0,0,1-.29.29l.31-.23-.33.19.36-.16a1.58,1.58,0,0,1-.37.11l.4-.06a1,1,0,0,1-.34,0l.4.06-.2,0,1,1.84a.88.88,0,0,1,.07-.23l-.15.36a1.92,1.92,0,0,1,.18-.31l-.23.31a1.48,1.48,0,0,1,.28-.28l-.3.23a2,2,0,0,1,.35-.2l-.36.15a1.85,1.85,0,0,1,.42-.11l-.4.05a2.28,2.28,0,0,1,.37,0l-1.3-2.25,0,0,.23-.3,0,0,.3-.24,0,0,.36-.15-.06,0,.4-.06h-.06l.4,0-.08,0,.35.15a.24.24,0,0,1-.09-.06l.3.24-.08-.08.23.3a.56.56,0,0,1-.05-.08l.15.36s0-.05,0-.08l0,.4v0l0,.4a.14.14,0,0,1,0-.06l-.15.35,0,0-.24.3.06-.06-.3.23.09,0-.36.15.08,0-.39,0h.14l-.4,0,.14,0-.36-.15a.51.51,0,0,1,.16.09l-.3-.23a.52.52,0,0,1,.1.11l-.23-.31.06.1-.15-.35,0,.14,0-.4a.74.74,0,0,1,0,.21l0-.4a1,1,0,0,1-.07.25l.15-.35a2.22,2.22,0,0,1-.25.42l2.35-.3a2.62,2.62,0,0,1-.22-.25l.23.3a2.62,2.62,0,0,1-.3-.51l.15.35a1.66,1.66,0,0,1-.12-.45l0,.4a1.37,1.37,0,0,1,0-.35l0,.4a.84.84,0,0,1,.07-.26l-.16.36c0-.08.09-.16.14-.24l-.23.31a.86.86,0,0,1,.13-.14l-.3.24a.38.38,0,0,1,.15-.09l-.36.15.17,0-.4.05a.91.91,0,0,1,.23,0l-.4-.06a1.38,1.38,0,0,1,.27.08l-.36-.15a2,2,0,0,1,.25.14l-.3-.23a.85.85,0,0,1,.19.19l-.24-.31a.64.64,0,0,1,.08.14l-.15-.36a.53.53,0,0,1,0,.12l0-.4a.24.24,0,0,1,0,.12l0-.4a.36.36,0,0,1,0,.1l.15-.36-.06.1.23-.31-.07.08a1.54,1.54,0,0,0-.44,1.06,1.58,1.58,0,0,0,.44,1.06,1.56,1.56,0,0,0,1.06.44,1.66,1.66,0,0,0,1.06-.44Z"
          transform="translate(-56.78 -29.91)"/>
    <path d="M308.13,179.64c.06,0,0,.34.09,0l-1.45,1.1c7.2-.26,14.72,5.22,15.53,12.64a1.5,1.5,0,0,0,2.94.4,4.61,4.61,0,0,0-.46-4.3,2.61,2.61,0,0,0-.36-.51l-.14-.21c0,.8-.44,1.08-1.17.82l-.53-.53.07.13a1.51,1.51,0,0,0,2.74-1.16c-1-3.73-2.59-7.45-5.95-9.62a9.25,9.25,0,0,0-5.35-1.53,21,21,0,0,0-2.6.41c-.49.09-1.14.24-1.51-.16-1.31-1.43-3.43.7-2.12,2.12s2.94,1.2,4.55.91a7,7,0,0,1,4.57.31c3.28,1.55,4.67,5.06,5.52,8.36l2.74-1.15c-1-1.71-3.5-1-3.9.78a3.06,3.06,0,0,0,.78,2.44,2,2,0,0,1,.23,2.09l2.95.4c-1-9-9.56-16-18.53-15.64a1.55,1.55,0,0,0-1.45,1.1,2.94,2.94,0,0,0,2,3.67c1.84.61,2.63-2.29.8-2.89Z"
          transform="translate(-56.78 -29.91)"/>
    <path d="M327.13,183.84c.6-1.9-.58-3.56-1.93-4.77a3.18,3.18,0,0,0-2.74-1,7.54,7.54,0,0,1-2.57-.61c-2-.53-4,0-6-.53a8.55,8.55,0,0,0-2.76-.31,6.48,6.48,0,0,1-2.94,0l-.8,2.89,8,2.58,4,1.3a31.67,31.67,0,0,1,3.82,1.27c1.91.89,1.92,3,1.93,4.81,0,2.26.35,4.48,2.05,6.11a1.53,1.53,0,0,0,2.51-.66,4.67,4.67,0,0,0,.06-3.39c-.65-1.8-3.55-1-2.89.8a2.12,2.12,0,0,1-.06,1.79l2.51-.66c-1.59-1.51-1.05-3.86-1.24-5.83-.22-2.33-1.17-4.47-3.36-5.56a27.2,27.2,0,0,0-3.95-1.39l-4.22-1.36-8.42-2.7c-1.88-.6-2.56,2.2-.8,2.89s3.15,0,4.79.14c.75.09,1.47.4,2.22.53a12.29,12.29,0,0,0,2.5.1,7.26,7.26,0,0,1,2.37.16,17,17,0,0,0,2.21.65,7.23,7.23,0,0,0,1,0c.54,0,.52.06.94.48s1,.9.79,1.5c-.59,1.84,2.31,2.63,2.89.8Z"
          transform="translate(-56.78 -29.91)"/>
    <path d="M213.58,161.54c-17.25.26-34.47-.44-51.65-1.86a423,423,0,0,1-50.87-6.93c-10-2.06-20-4.54-29.42-8.46-4.27-1.75-8.5-3.7-11.93-6.87-1.9-1.75-3.9-3.56-4.2-6.4a7.87,7.87,0,0,1,1.84-6.13c4-5,9.56-7.58,15.32-9.69a156.35,156.35,0,0,1,18.06-5.72c9.39-2.19,18.9-3.89,28.4-5.57,5.37-1,10.83-1.46,16.25-2.13.94-.11,1.45-.4,1.58-1.44.18-1.53.55-3,.86-4.56q2.82-13.69,5.66-27.39c1.23-5.91,2.37-11.83,3.74-17.71,2.36-10,8.67-16.59,18.46-19.85a17.45,17.45,0,0,1,12.84.68c2.32,1,4.58,2.13,6.94,3a58.35,58.35,0,0,0,39.27,1.36,87.31,87.31,0,0,0,9.7-4A19.18,19.18,0,0,1,259.05,31a28.33,28.33,0,0,1,11.5,7.43,27.38,27.38,0,0,1,5,8.08c2.07,4.76,2.35,9.92,3.48,14.89.78,3.4,1.34,6.84,2,10.26q2.49,12.06,5,24.11a38.46,38.46,0,0,0,1.29,5,2.27,2.27,0,0,0,1.62,1c4.39.62,8.83,1,13.2,1.73,8.27,1.37,16.52,2.83,24.75,4.45a146.42,146.42,0,0,1,22.87,6.48,56.13,56.13,0,0,1,13.33,6.82,13.6,13.6,0,0,1,5.46,7.27,6.18,6.18,0,0,1-.84,4.83c-2.36,4.15-6.19,6.42-10.22,8.56a86.82,86.82,0,0,1-19.25,7.17c-7.54,1.93-15.16,3.63-22.8,5.09a376.36,376.36,0,0,1-43.1,5.48c-11.73.86-23.48,1.43-35.24,1.84C229.31,161.76,221.44,161.54,213.58,161.54Z"
          transform="translate(-56.78 -29.91)"/>
    <path d="M217.29,107.24h48.06c8.55,0,16.61,2.34,24.41,5.43a67.66,67.66,0,0,1,20.89,13.53,92.76,92.76,0,0,1,12.73,14.85c5.32,7.58,9,15.95,13.17,24.06s8.48,16.24,12.67,24.38c6.11,11.87,12.16,23.77,18.24,35.65,2,3.93,4.09,7.84,6,11.81a37.47,37.47,0,0,1,4,16.27c.08,7.31-.12,14.51-3,21.45a39.16,39.16,0,0,1-3.35,5.94A34.62,34.62,0,0,1,355.34,294a19.06,19.06,0,0,1-7.57,1.48c-11.82,0-23.65,0-35.47,0-3.24,0-7.92-2.39-7.84,20.12,0,8.08-.93,16-4.17,23.43A41.24,41.24,0,0,1,294,349c-5.87,7-13.15,12.37-22.29,14.51-6.71,1.56-13.75,1.77-20.33-.37-4.56-1.48-8.74-4.14-12.94-6.64-5.59-3.32-9.34-8.17-13.54-12.72-1.9-2.06-3.84-4.1-5.7-6.19-.86-1-1.53-1.05-2.41,0a47.45,47.45,0,0,1-4.18,4.55c-3.81,3.42-7.92,6.54-11.54,10.13-2.37,2.35-5.29,3.91-7.69,6.14-1.31,1.21-3.19,1.38-4.7,2.25-8.47,4.89-17.64,4.79-26.67,2.63a37.45,37.45,0,0,1-19-11.56c-5.77-6.32-10-13.29-11.65-21.76A74.5,74.5,0,0,1,130,315.55c0-22.3-4.43-20.1-8.21-20.09H87.52c-7.28,0-13.15-3.08-18.18-7.94A44.1,44.1,0,0,1,62,278.58a34.68,34.68,0,0,1-4.84-14.51,65.26,65.26,0,0,1,.2-16.16c1-6.35,3.85-11.92,6.83-17.5s5.66-11.07,8.52-16.59c3.53-6.84,7.19-13.62,10.63-20.51q3.72-7.47,7.62-14.85c3-5.71,5.68-11.6,8.73-17.3,2.86-5.33,5.29-10.87,8.51-16a113.52,113.52,0,0,1,8.1-11.09,75.08,75.08,0,0,1,12.28-12,80.88,80.88,0,0,1,11.49-7.32c6.43-3.47,13.5-4.91,20.4-6.88a23.59,23.59,0,0,1,6.46-.62C183.74,107.22,200.51,107.24,217.29,107.24Zm.05,8.21c-13.41,0-26.84.18-40.25-.06A65.79,65.79,0,0,0,151,119.92a67.95,67.95,0,0,0-26.74,18.25,67.72,67.72,0,0,0-9,12.25c-3.64,6.31-6.79,12.88-10.06,19.38-5.48,10.89-11.3,21.63-16.76,32.54-3,5.93-6.13,11.77-9,17.75-3.68,7.68-7.92,15.09-11.72,22.71a30.07,30.07,0,0,0-3.26,12.73c-.16,7.64,2.44,14.51,6.48,21,2.3,3.7,5.93,6,9.47,8.14a20.84,20.84,0,0,0,10.83,2.6c5.86,0,11.72,0,17.59,0h3.83c1,0,6.26,0,6.26-3.27,0-1.55.05-3.42.15-5.5.66-15.17,3.57-41.83,6.25-42.26,7.17-1.18,12.25,1.47,12.16,9.51-.25,21.14,0,42.29-.11,63.44,0,8.38.5,16.63,4,24.45,3.26,7.32,7.76,13.59,15.22,17.4,1.33.68,2.6,1.47,3.95,2.1,4.42,2.05,9,3.35,14,2.7,7.06-.93,12.9-4.29,18.43-8.48a118.86,118.86,0,0,0,18.44-17.77c3.29-3.85,8.37-4.17,11.73-.52,1.72,1.88,3.33,3.87,5,5.76,3,3.28,5.65,7.05,9.18,9.66a87.81,87.81,0,0,0,12.89,8.25c5.72,2.84,11.36,4.08,17.53,2.52a36.83,36.83,0,0,0,25.15-20.8c3.38-7.22,4.23-15,4.21-22.92-.07-22.62,0-45.25,0-67.87a7.45,7.45,0,0,1,7.66-7.54c1.34,0,2.68,0,4,0a3.36,3.36,0,0,1,2.57.81c2,2.07,3.67,25.79,4.09,40.84.07,2.63.1,5,.09,6.93s.47,2.63,2.54,2.6c1.51,0,3,0,4.55,0,7,0,14.07,0,21.11,0,6.82,0,12.43-3.08,17.1-7.53a27.49,27.49,0,0,0,7-11.66c2.06-6.42,3-12.75,1-19.46-1.83-6.29-5.24-11.8-8.13-17.56-5.71-11.33-11.83-22.46-17.4-33.85-4-8.17-8.36-16.14-12.36-24.31-2.87-5.87-6.24-11.51-9-17.42A70.21,70.21,0,0,0,307,134.82a66.25,66.25,0,0,0-16.75-11.77c-9.36-4.61-19-7.68-29.59-7.62C246.2,115.52,231.77,115.45,217.34,115.45Z"
          transform="translate(-56.78 -29.91)"/>
    <path d="M135.83,325.11c0-.39,0-.81,0-1.28a46.45,46.45,0,0,0-.25-7.23c0,3.27-.06,6.28-.06,8.43A.79.79,0,0,1,135.83,325.11Z"
          transform="translate(-56.78 -29.91)" fill="none" stroke="#000" stroke-miterlimit="10" stroke-width="3"/>
    <path d="M109.15,293.27c7.48-1,11.29-8.25,14.09-14.42l-2.74-1.15a21,21,0,0,1-14.86,13.6c-1.87.45-1.08,3.33.8,2.89a20.49,20.49,0,0,0,13-9.9A22.43,22.43,0,0,0,122,275.7c.37-3.11.64-7,3.57-8.92l-2.05-2c-2.45,4.54-3.62,9.55-4.95,14.49s-2.8,9.72-6.17,13.52l2.12,2.12a88.2,88.2,0,0,0,7-9.32c2-3.14,4.43-6.62,5.05-10.37.31-1.89-2.58-2.7-2.89-.8-.58,3.51-2.86,6.73-4.75,9.65a80.5,80.5,0,0,1-6.53,8.72c-1.25,1.45.83,3.57,2.12,2.12,7.15-8.05,6.66-19.46,11.59-28.61.68-1.27-.74-2.9-2-2.06-5.89,3.79-4,11.37-6.37,17a17.52,17.52,0,0,1-12,10.12l.8,2.89a24,24,0,0,0,17-15.7c.53-1.58-2-2.71-2.74-1.15-2.49,5.49-5.6,12.12-12.3,13a1.5,1.5,0,0,0-1,1.84,1.53,1.53,0,0,0,1.84,1Z"
          transform="translate(-56.78 -29.91)"/>
    <path d="M325.55,290.38c-6.7-.92-9.81-7.55-12.3-13-.7-1.55-3.27-.45-2.74,1.15a24,24,0,0,0,16.95,15.7l.8-2.89a17.56,17.56,0,0,1-12-10.12c-2.39-5.62-.47-13.19-6.36-17-1.32-.84-2.73.79-2.06,2.06,4.93,9.15,4.44,20.56,11.59,28.61,1.29,1.45,3.37-.67,2.13-2.12A80.5,80.5,0,0,1,315,284c-1.9-2.92-4.18-6.14-4.76-9.65-.31-1.9-3.2-1.09-2.89.8.62,3.75,3,7.23,5.06,10.37a86.77,86.77,0,0,0,7,9.32l2.13-2.12c-3.38-3.8-4.89-8.71-6.18-13.52s-2.5-10-4.94-14.49l-2.06,2c2.85,1.84,3.19,5.63,3.54,8.69a23,23,0,0,0,2.54,8.82,20.52,20.52,0,0,0,13,9.9c1.88.44,2.68-2.44.8-2.89a21,21,0,0,1-14.86-13.6l-2.74,1.15c2.8,6.17,6.61,13.39,14.09,14.42a1.57,1.57,0,0,0,1.85-1,1.51,1.51,0,0,0-1.05-1.84Z"
          transform="translate(-56.78 -29.91)"/>
    <path d="M241.92,282.28l-.07-.25c-.16-.59-.34-1.17-.54-1.75-.08-.22-.18-.44-.27-.65-.27-.41-.54-.83-.79-1.26a17.43,17.43,0,0,0-3.13-2.93c-7.25-2.88-16.09-3.19-23.93-2.69a62.16,62.16,0,0,0-11.7,1.95q-2.94.75-5.84,1.62s0,0,0,0c-.6,1-1.24,1.93-1.78,2.93a1.57,1.57,0,0,1-.3.38c-.23.89-.44,1.81-.6,2.76-.62,3.62-1.35,7.24-.22,11,1.41,4.65,4.93,7.31,8.61,9.64,2.86,1.82,5.85,3.41,8.85,5,.9.28,1.82.57,2.8.79a23.17,23.17,0,0,0,9.74-.23c1.91-1,4-1.84,6-2.68,1.72-1,3.44-1.93,5.1-3,3.14-2,6.35-4.22,7.78-8a20,20,0,0,0,1.17-5.16A40.9,40.9,0,0,0,241.92,282.28Zm-11.51,11.29c-3.9,2.48-7.79,5-11.75,7.34a2.94,2.94,0,0,1-2.43,0c-4.89-2.4-9.67-5-13.59-9a4,4,0,0,1-1.37-3.48c.4-4.69,1.23-9.28,5-12.38a16.2,16.2,0,0,1,6.17-2.71c1.6-.42,3.38-.08,5.08-.08v-.15a57.1,57.1,0,0,1,6.29.38c5.76.94,8.66,6.55,9.7,12.48C234.1,289.39,233.2,291.8,230.41,293.57Z"
          transform="translate(-56.78 -29.91)"/>
    <path d="M199.87,281.49c.23-1.42,1.3-1.93,2.69-2.75a23.09,23.09,0,0,1,4.56-2.06,28.92,28.92,0,0,1,10.17-1.28,43.13,43.13,0,0,1,10.32,1.81,18.09,18.09,0,0,1,3.86,1.42,3.39,3.39,0,0,1,2,2.5c.9,3.75,6.68,2.16,5.79-1.6-1-4.37-4.88-6.5-8.86-7.75a50.84,50.84,0,0,0-13.1-2.38,33.19,33.19,0,0,0-12.92,1.9c-3.9,1.46-9.55,3.94-10.28,8.59a3.09,3.09,0,0,0,2.09,3.69c1.43.39,3.44-.48,3.69-2.09Z"
          transform="translate(-56.78 -29.91)"/>
    <path d="M200.92,280.11c9.86-3.47,22-5.2,31.11,1.13,1.59,1.11,3.09-1.49,1.51-2.59-9.76-6.76-22.85-5.16-33.42-1.43-1.81.64-1,3.54.8,2.89Z"
          transform="translate(-56.78 -29.91)"/>
    <path d="M106.46,203.91l5.32,19.29" transform="translate(-56.78 -29.91)" fill="none" stroke="#000"
          stroke-miterlimit="10" stroke-width="2"/>
</svg>
