<svg id="Layer_1" data-name="Layer 1" xmlns="http://www.w3.org/2000/svg" xmlns:xlink="http://www.w3.org/1999/xlink" viewBox="0 0 512 137.96"><defs><linearGradient id="linear-gradient" x1="-654.72" y1="579.3" x2="-653.46" y2="579.73" gradientTransform="matrix(14.61, 0, 0, -15.59, 9820.79, 9065.41)" gradientUnits="userSpaceOnUse"><stop offset="0" stop-color="#f69923"/><stop offset="0.31" stop-color="#f79a23"/><stop offset="0.84" stop-color="#e97826"/></linearGradient><linearGradient id="linear-gradient-2" x1="-617.46" y1="587.32" x2="-617.15" y2="591.13" gradientTransform="matrix(8.24, 0, 0, -25.09, 5339.96, 14873.96)" gradientUnits="userSpaceOnUse"><stop offset="0.32" stop-color="#9e2064"/><stop offset="0.63" stop-color="#c92037"/><stop offset="0.75" stop-color="#cd2335"/><stop offset="1" stop-color="#e97826"/></linearGradient><linearGradient id="linear-gradient-3" x1="-636.33" y1="587.59" x2="-636.02" y2="590.87" gradientTransform="matrix(10.6, 0, 0, -22.94, 7019.37, 13613.98)" gradientUnits="userSpaceOnUse"><stop offset="0" stop-color="#282662"/><stop offset="0.1" stop-color="#662e8d"/><stop offset="0.79" stop-color="#9f2064"/><stop offset="0.95" stop-color="#cd2032"/></linearGradient><linearGradient id="linear-gradient-4" x1="-660.54" y1="597.31" x2="-660.19" y2="599.46" gradientTransform="matrix(16.68, 0, 0, -42.78, 11270.89, 25684.43)" xlink:href="#linear-gradient-2"/><linearGradient id="linear-gradient-5" x1="-668.15" y1="597.22" x2="-667.66" y2="598.4" gradientTransform="matrix(20.41, 0, 0, -39.25, 13900.94, 23569.35)" xlink:href="#linear-gradient-3"/><linearGradient id="linear-gradient-6" x1="-662.2" y1="598.77" x2="-662.02" y2="601.16" gradientTransform="matrix(17.4, 0, 0, -50.25, 11787.25, 30232.89)" xlink:href="#linear-gradient-2"/><linearGradient id="linear-gradient-7" x1="-644.07" y1="589.94" x2="-643.77" y2="594.43" gradientTransform="matrix(11.97, 0, 0, -30.51, 7970.48, 18174.65)" xlink:href="#linear-gradient-2"/><linearGradient id="linear-gradient-8" x1="-661.86" y1="577.95" x2="-660.43" y2="578.28" gradientTransform="matrix(17.16, 0, 0, -14.96, 11677.41, 8685.89)" xlink:href="#linear-gradient"/><linearGradient id="linear-gradient-9" x1="-666.73" y1="588.39" x2="-665.25" y2="592.2" gradientTransform="matrix(18.94, 0, 0, -26.61, 12910.11, 15798.65)" xlink:href="#linear-gradient-2"/><linearGradient id="linear-gradient-10" x1="-672.13" y1="580.85" x2="-670.67" y2="582.68" gradientTransform="matrix(22.58, 0, 0, -16.84, 15442.95, 9905.67)" xlink:href="#linear-gradient-3"/><linearGradient id="linear-gradient-11" x1="-676.57" y1="598.44" x2="-675.86" y2="600.59" gradientTransform="matrix(26.7, 0, 0, -47.69, 18346.64, 28672.66)" xlink:href="#linear-gradient-2"/><linearGradient id="linear-gradient-12" x1="-667.28" y1="598.94" x2="-666.93" y2="600.12" gradientTransform="matrix(19.93, 0, 0, -45.76, 13565.38, 27537.02)" xlink:href="#linear-gradient-3"/><linearGradient id="linear-gradient-13" x1="-686.08" y1="596.37" x2="-684.62" y2="598.66" gradientTransform="matrix(40.71, 0, 0, -39.8, 28195.76, 23868.81)" xlink:href="#linear-gradient-2"/><linearGradient id="linear-gradient-14" x1="-679.9" y1="584.73" x2="-677.94" y2="587.07" gradientTransform="matrix(28.81, 0, 0, -20.78, 19852.8, 12251.74)" xlink:href="#linear-gradient-2"/></defs><title>maven</title><path d="M252,27.57a10.34,10.34,0,0,0-.53,1.69l-.12.54c0,.18-.08.38-.12.58l-.11.61h0l-.1.66h0l-.1.7h0l-.09.74h0l-.09.77h0l-.08.81c0,.14,0,.28,0,.42l-.07.86h0l-.07.89h0l-.05.93,0,.48L256.09,41a73.16,73.16,0,0,1,.32-9.42l.06-.52h0l0,.47h0l-.05.79h0l0,.37h0l0,.86h0l0,.48h0v1.07h0V36h0l0,1h0v.7h0l0,1.12h0l0,.8h0l.05.83c0,.15,0,.29,0,.44,1.07-.88,2.35-2,3.68-3.27l.89-.85.45-.43.9-.87h0l.88-.88h0l.86-.87h0l.83-.86h0a17.91,17.91,0,0,0-2.82-4.26l-.31-.32c-.2-.2-.4-.39-.59-.56l-.28-.25h0l-.27-.22-.26-.2-.25-.18h0l-.24-.16h0l-.32-.2h0l-.29-.16h0l-.33-.16h0l-.24-.11h0l-.44-.16h0l-.32-.1h0l-.32-.09h0l-.24-.06h0l-.26-.06-.13,0-.29,0h0l-.3,0C254.87,25.29,252.82,25.5,252,27.57Z" transform="translate(0)" fill="url(#linear-gradient)"/><path d="M267.08,96.87l-.8-2.91h0l-.7-2.59h0l-.3-1.14h0L264.7,88h0l-.57-2.2h0l-.55-2.26c-.1-.37-.19-.75-.27-1.11l-.52-2.19h0L262.26,78c-.25-1.1-.49-2.18-.72-3.25l-.46-2.13c-.07-.35-.15-.7-.22-1l-.3-1.49h0l-.69-3.5h0l-.14-.78h0l-.3-1.53h0l-.08-.51h0l-.07-.37h0l-.28.26-.57-.29,0,.19h0c.13.76.26,1.53.4,2.31l.46,2.5c.05.22.09.45.13.68.26,1.4.54,2.79.83,4.19l.3,1.41c.39,1.88.81,3.78,1.24,5.64s.86,3.67,1.3,5.5c.3,1.21.6,2.42.9,3.61l.46,1.79Q265.21,94,266,96.7c.1.4.22.83.34,1.22l.6,2.18c.2.71.4,1.43.61,2.13l.92.46.3-.27a.24.24,0,0,0,0-.12C268.09,100.45,267.57,98.63,267.08,96.87Z" transform="translate(0)" fill="none"/><path d="M257.59,58c-.27-1.91-.51-3.78-.73-5.63-.18-1.53-.32-3-.44-4.54l-.1-1.34a.34.34,0,0,1,0-.1c-.13-1.82-.22-3.59-.26-5.32l-5.73-2.76v.35h0l0,.73h0c-.06,1.37-.1,2.82-.11,4.36,0,1.72,0,3.52,0,5.41s.11,3.55.21,5.39c.07,1.18.14,2.37.23,3.57l.11,1.4h0l7.65,3.88-.27-1.81h0Z" transform="translate(0)" fill="url(#linear-gradient-2)"/><path d="M268.66,102.42l.12.41h0l.76,2.59.33,1.1.37,1.18h0l.12.42c0,.07.05.14.07.21l1.24,4h0a6.83,6.83,0,0,1,3.83.8l.56.25h0a6.26,6.26,0,0,0-4.18-2.27c4.69-3.13,7.78-7.16,7.35-12-.05-.43-.11-.87-.19-1.32-.07,1.78-.78,3.08-2.83,4.47l-.25.16h0c2.12-3.73,2.7-6.26,2.45-9.53-.06-.78-.16-1.6-.3-2.49a12.26,12.26,0,0,1-7.13,9.89Z" transform="translate(0)" fill="url(#linear-gradient-3)"/><path d="M265.92,96.7l-.49-1.82h0l-1-3.7h0c-.47-1.78-.91-3.58-1.36-5.41s-.87-3.66-1.3-5.49-.85-3.76-1.24-5.64l-.39-1.87h0L259.41,69h0c-.13-.68-.25-1.34-.37-2-.21-1.14-.41-2.3-.61-3.46l0-.19h0l-7.62-3.89,0,.24v.13c.15,1.72.3,3.48.51,5.24s.42,3.57.69,5.39c.23,1.52.47,3,.72,4.57l.17.91h0c.35,1.9.72,3.73,1.13,5.43.45,1.94.94,3.76,1.44,5.45.33,1.11.65,2.18,1,3.19l.3.86h0l.61,1.69h0q1.09,3,2.4,5.78l7.7,3.9c-.41-1.41-.79-2.85-1.21-4.31l-.21-.82h0Z" transform="translate(0)" fill="url(#linear-gradient-4)"/><path d="M259.87,98.61a61.77,61.77,0,0,0,3.05,5.75l.62,1h0a8.75,8.75,0,0,0-2.55-.5l-.44,0H259.3l-.54,0h0l-.45,0h0l-.63.05h0c3.89,1.35,7.31,3,9.46,5.5a10,10,0,0,1-4.47,2.25,13.17,13.17,0,0,0,3.46,0l.34-.06.15,0,.28-.06h0l.24-.07h0l.29-.11h0l.14-.06h0a10.3,10.3,0,0,0-2.65,4.76l-.22.7c0,.12-.07.24-.11.36,1.64-2.68,3.26-4.45,4.84-5.13,1.77,5.86,3.81,12.09,6.06,18.6l1,3q.54,1.51,1.08,3.06a2.32,2.32,0,0,0,.36-2.18l-.72-2h0l-.81-2.37h0l-1.27-3.75h0l-1-3.15h0L273,120.57h0l-1.09-3.47h0l-1-3.24h0l-.74-2.43h0l-.6-2h0c-.08-.27-.15-.53-.23-.81l-.23-.74h0l-.65-2.24h0l-.66-2.31h0l-.29-1.06h0l0,0h0l-7.69-3.9a1,1,0,0,0,.06.18Z" transform="translate(0)" fill="url(#linear-gradient-5)"/><path d="M259.3,63.51l.13.75h0c.1.51.2,1,.29,1.54l.84,4.27h0l.3,1.49h0l.45,2.1c.07.35.15.71.23,1.07.23,1.07.47,2.15.72,3.25l.53,2.24h0l.52,2.19c.08.36.17.74.27,1.11l.55,2.26h0l.56,2.2c.29,1.11.58,2.24.89,3.39.22.85.46,1.71.7,2.58l.8,2.92h0l.6,2.14h0l.63,2.19c.1.37.21.74.32,1.11a.2.2,0,0,0,0,.11l2.32-2.14-.05,0h0l-.13.06h0c2.76-2.6,5.12-7.82,5.66-12.52a29.78,29.78,0,0,0-.07-7,49.78,49.78,0,0,0-1.12-6c-.46-1.84-1-3.79-1.71-5.85a11.56,11.56,0,0,1-1.77,2.56l-.4.44h0l-.14.14h0l-.29.29h0a13.59,13.59,0,0,0,1.67-10.07,12.89,12.89,0,0,1-2.3,4,5.32,5.32,0,0,1-.52.55l-.09.08-.05,0a14.29,14.29,0,0,0,1.49-3.27,3.74,3.74,0,0,0,.12-.45l.05-.23a9.83,9.83,0,0,0,.19-1.06l.08-.69h0a10.16,10.16,0,0,0,0-1.24l-.05-.77c0-.06,0-.11,0-.17l-.08-.5c0-.08,0-.15-.05-.23-.16-.92-.33-1.74-.51-2.47l-.16-.65h0l-.15-.55h0l-.2-.66h0l-.26-.76a1.43,1.43,0,0,0-.08-.22l-.15-.39-.14-.32-.13-.26a1.76,1.76,0,0,1-.1.3l-.07.16a15,15,0,0,1-2.61,3.75.1.1,0,0,0,0,0l-.21.21-.1.12,0-.08h0l-7.32,6.7A.14.14,0,0,1,259.3,63.51Z" transform="translate(0)" fill="url(#linear-gradient-6)"/><path d="M256.47,40.89c0,.53.06,1.09.1,1.67l.09,1.18c0,.2,0,.41,0,.62l.11,1.27.06.66,0,.21a.36.36,0,0,0,0,.1c.06.65.13,1.32.2,2l.17,1.41q.07.72.18,1.47l.3,2.3c.14,1,.3,2.13.47,3.25l.13.86c.14.87.28,1.76.44,2.67l.48,2.82h0l7.31-6.7a12,12,0,0,0,1.84-6.62c0-.43,0-.87-.05-1.33l0-.46a55.31,55.31,0,0,0-.66-5.78,47.61,47.61,0,0,0-1.09-5.17,25.85,25.85,0,0,0-.83-2.63c-.27-.65-.54-1.25-.81-1.82l-.83.85-.43.43-.87.87h0l-.89.87h0l-.9.87-.45.42-.88.83C258.54,39.12,257.42,40.11,256.47,40.89Z" transform="translate(0)" fill="url(#linear-gradient-7)"/><path d="M212.12,30.79a41.38,41.38,0,0,1,10.7,2.47,20.36,20.36,0,0,1,7.74,4.94,14.36,14.36,0,0,1,4.12,7.73,21.5,21.5,0,0,1,0,6.42q-.5,3.63-1.32,7.41L226,96.48q-.49,3.12-1.15,6.42a21.47,21.47,0,0,0-.5,5.76,4.78,4.78,0,0,1-.16,1.15v1h0a20.14,20.14,0,0,1-.33,3.62,3.08,3.08,0,0,1-2.14,2.47,6.2,6.2,0,0,1-2.47.5H204.71a3.24,3.24,0,0,1-2-.83,3.14,3.14,0,0,1-1.32-1.81,4.48,4.48,0,0,0-1.15-2.14,2.08,2.08,0,0,0-.83-.49,1.24,1.24,0,0,0-1.15-.17,9.09,9.09,0,0,0-1.81.83,11.5,11.5,0,0,1-1.65.82,13.23,13.23,0,0,1-2.14,1.15c-.66.33-1.37.66-2.14,1a34.87,34.87,0,0,1-4.77,1.65c-1.65.32-3.29.71-4.94,1.15a10.19,10.19,0,0,1-2.47.33l-2.14.33h-1a3.11,3.11,0,0,1-1,.16h-1.81a8.26,8.26,0,0,1-3.29,0h-1.48a8.37,8.37,0,0,0-2.31-.33,4,4,0,0,1-2-.16l-3-.66a6.94,6.94,0,0,1-2.63-.82,21.72,21.72,0,0,1-7.24-4.61,15.6,15.6,0,0,1-3.79-7.74,16.36,16.36,0,0,1-.49-2.47,25.43,25.43,0,0,0-.17-2.8,4.17,4.17,0,0,1,0-1.65,4.36,4.36,0,0,0,.33-1.64c0-.33.06-1,.16-2a10.11,10.11,0,0,1,.66-2.3,12.67,12.67,0,0,0,.83-2.8l1.64-3.62h0a20.67,20.67,0,0,1,2.14-3.46,28.23,28.23,0,0,1,7.74-7.25,45.19,45.19,0,0,1,10.21-4.28,23.56,23.56,0,0,1,4.61-1.15c1.54-.22,3.13-.49,4.77-.82a11.49,11.49,0,0,1,2.8-.33,26.6,26.6,0,0,0,3.13-.5,5.62,5.62,0,0,1,2.3-.16,12.33,12.33,0,0,0,2.64-.33,8.36,8.36,0,0,1,2.3-.33,10.13,10.13,0,0,0,2.47-.33c2.42-.55,4.61-1,6.59-1.31a13.79,13.79,0,0,0,5.93-3A12.58,12.58,0,0,0,210,59.27a2.66,2.66,0,0,0,.16-.82,1.47,1.47,0,0,1,.17-.66,1.34,1.34,0,0,0,.33-1,5.11,5.11,0,0,1,.33-1V53.34h0a7.94,7.94,0,0,0-5.6-6.75,12.87,12.87,0,0,0-3.46-.66,16.94,16.94,0,0,0-4.11-.16,28,28,0,0,0-4.28.33,23,23,0,0,0-3.46.82,7.58,7.58,0,0,0-2.14,1,18.38,18.38,0,0,0-2,1.15,14.42,14.42,0,0,0-2.14,1.81A8.55,8.55,0,0,0,182.16,53a35.93,35.93,0,0,0-2,3.13,4.16,4.16,0,0,1-2.8,2,11.49,11.49,0,0,1-2.8.33h-9.22a11,11,0,0,0-1.81.16,4.2,4.2,0,0,1-1.31-.16h-1.49a1.81,1.81,0,0,0-.82-.17,1.11,1.11,0,0,1-.82-.33c-.77-.22-1.21-.93-1.32-2.14a4.33,4.33,0,0,1,.33-1.64c.22-.55.44-1.05.66-1.49.55-1.2,1.1-2.3,1.64-3.29a34.53,34.53,0,0,1,2-3l1.32-1.65h0L165,43.13a24.76,24.76,0,0,1,4-3.45,3.36,3.36,0,0,0,1.15-.83c.66-.43,1.21-.82,1.64-1.15s1.16-.66,1.82-1A29.68,29.68,0,0,1,180,33.92c2.3-.77,4.61-1.49,6.91-2.15a30.13,30.13,0,0,1,4.28-.65,33.5,33.5,0,0,0,4.45-.66,5.76,5.76,0,0,1,2,0,2.85,2.85,0,0,0,1.81-.17A94,94,0,0,1,212.12,30.79Zm183,1.31a33.15,33.15,0,0,1,9.72,5.27,16.21,16.21,0,0,1,2.47,2.31,11.13,11.13,0,0,1,2.14,2.47,2.65,2.65,0,0,0,1.15,1.31,23.23,23.23,0,0,1,1.65,3.79c.55,1.21,1.15,2.47,1.81,3.79a14.38,14.38,0,0,1,.66,3.13c.22,1,.44,2.08.65,3.29a29.07,29.07,0,0,1,.33,4.44l.33,4.61a10.43,10.43,0,0,1-.49,3,8.42,8.42,0,0,0-.17,2.8l-.32,1.81a8.1,8.1,0,0,1-.66,3,3.84,3.84,0,0,1-1.65,2.14,5.77,5.77,0,0,1-2.47,1c-1.1.11-2.3.22-3.62.33h-3.79c-1.2-.11-2.3-.17-3.29-.17H357.12a4.86,4.86,0,0,0-1.81.33,5,5,0,0,0-2,1.32,9.83,9.83,0,0,0-1,1.32,3.12,3.12,0,0,0-.49,1.64,6.57,6.57,0,0,1,0,2,11,11,0,0,0,.16,1.81,20.35,20.35,0,0,0,1.81,6.58,15,15,0,0,0,4.28,4.45,7.22,7.22,0,0,0,2.47,1.15,11.57,11.57,0,0,1,2.8.66,21.63,21.63,0,0,0,3.46.49,16.47,16.47,0,0,0,4.11-.16h1.48c1.1-.22,2.15-.44,3.13-.66l3-1h0c1.2-.55,2.58-1.26,4.11-2.14a16.55,16.55,0,0,0,3.62-2.63,20.59,20.59,0,0,1,2.14-2.14,7,7,0,0,1,2.47-1.65,8.82,8.82,0,0,1,4.28-.66h6.75a3.83,3.83,0,0,1,2,.17h1.65a5.84,5.84,0,0,1,2.14.82c.33.22.44.72.33,1.48a3.78,3.78,0,0,1-.5,2,29.22,29.22,0,0,1-2.8,4.11,41,41,0,0,1-3,3.63,42.66,42.66,0,0,1-9.88,8.72,54.26,54.26,0,0,1-12.68,5.6,16.59,16.59,0,0,1-3.78.82,29.29,29.29,0,0,0-3.95.66,3.35,3.35,0,0,1-1.48,0,5.43,5.43,0,0,0-1.32.17h-1.81a4.06,4.06,0,0,1-2,.16,9.24,9.24,0,0,1-1.81-.16,8,8,0,0,0-2.3,0,4.84,4.84,0,0,1-2.14-.17,4.87,4.87,0,0,0-1.82-.33,3.66,3.66,0,0,1-1.64-.33c-1.21-.22-2.42-.49-3.62-.82a8.8,8.8,0,0,1-3-1.15c-1.1-.44-2.14-.83-3.13-1.15a15.31,15.31,0,0,1-2.63-1.49,37,37,0,0,1-7.9-7.57A30.89,30.89,0,0,1,330.29,96a20.72,20.72,0,0,1-.66-3.62,16.69,16.69,0,0,0-.49-4V87.26h0a5.42,5.42,0,0,0,.16-1.32,27.76,27.76,0,0,1,0-4.28l.66-4.61h0a9.24,9.24,0,0,0,.16-1.81,8.7,8.7,0,0,1,.5-1.81l.49-2,1.32-4c.77-1.86,1.48-3.68,2.14-5.43A25.91,25.91,0,0,1,337,57.13a57.34,57.34,0,0,1,29-24.2A20.7,20.7,0,0,1,371,31.61q2.48-.49,5.27-1.15a20,20,0,0,1,2.47-.17,19.89,19.89,0,0,0,2.47-.16A37.52,37.52,0,0,1,395.15,32.1ZM54.19,0c1.87,0,3.19.38,4,1.15A3.51,3.51,0,0,1,59.3,3.62a27.85,27.85,0,0,0,.49,3q.33,2.63.66,5.43c.33,1.75.6,3.57.82,5.43q1.81,10.38,3,21.07,1.31,10.71,3.12,21.24a66.86,66.86,0,0,1,1,6.75,66,66,0,0,0,1,6.75l.33,1.65a2.1,2.1,0,0,0,.82,1.32,2,2,0,0,1,.5.33.82.82,0,0,0,.82-.17,3.4,3.4,0,0,0,2.14-2q.83-1.65,1.65-3,2-3.78,3.78-7.41c1.21-2.52,2.53-5.05,4-7.57q5.28-10,10.54-20.09Q99.3,26.18,104.57,16q1.32-2.64,2.64-5.1c1-1.76,1.92-3.52,2.79-5.27.44-.88.94-1.76,1.49-2.64a6.18,6.18,0,0,1,2.3-2.14A4.42,4.42,0,0,1,116.43,0h28.31a3.22,3.22,0,0,1,2.31.66c1.1.66,1.42,1.92,1,3.79s-.66,3.56-1,5.43l-4.94,24.69L129.76,95.82,127,110.14c-.22,1.21-.49,2.42-.82,3.62a4.49,4.49,0,0,1-1.65,2.47,5.47,5.47,0,0,1-2.63,1H106.22a19.41,19.41,0,0,0-2.14-.49,1.94,1.94,0,0,1-1.32-1.16,3.28,3.28,0,0,1-.33-2.14c.22-.87.44-1.81.66-2.79l1.65-8.4,8.56-42.31c.22-1.54.44-3,.66-4.28s.6-2.86.82-4.28l.66-2.64a12.91,12.91,0,0,0,.33-2.8,9.27,9.27,0,0,1,0-2.47c.22-.87,0-1.42-.5-1.64a.74.74,0,0,0-.82.16l-.49.5h0a7.17,7.17,0,0,0-1.49,1.64l-1,1.65h0q-1.48,2.48-3,5.1c-.88,1.76-1.86,3.51-3,5.27l-1,2h0a8.27,8.27,0,0,1-1,2c-.87,1.43-1.7,2.86-2.47,4.28a38,38,0,0,1-2.3,4.28,3.69,3.69,0,0,0-.49,1.16,4.13,4.13,0,0,1-.5,1A29,29,0,0,0,96,73.92a16,16,0,0,1-1.81,3.29,29,29,0,0,0-1.81,3.13,23.09,23.09,0,0,1-1.65,3.3q-3,4.77-5.43,9.71-2.48,4.77-5.1,9.55a2.6,2.6,0,0,0-.66,1,1.43,1.43,0,0,1-.5,1,42.16,42.16,0,0,0-2.14,3.79,29.32,29.32,0,0,1-2,3.62c-.44.77-.88,1.48-1.32,2.14a7.19,7.19,0,0,1-1.48,1.65,5.16,5.16,0,0,1-1.81.82,9.16,9.16,0,0,0-2.14.33H64.4c-.77,0-1.7.06-2.8.17H58.47a22.65,22.65,0,0,1-2.8-.17,3.15,3.15,0,0,1-1.81-.66,3.8,3.8,0,0,1-1.48-1.81,15.28,15.28,0,0,0-.66-2.63c-.22-1.32-.38-2.64-.49-4a24.77,24.77,0,0,0-.66-4.12l-.16-1.48a24.77,24.77,0,0,1-.66-4.12,25.09,25.09,0,0,0-.66-4.28v-.82h0a3.12,3.12,0,0,0-.17-1,15,15,0,0,1-.65-3.13c-.11-1.09-.28-2.19-.5-3.29v-.82h0a1.86,1.86,0,0,0-.16-.83c-.22-1.09-.39-2.19-.5-3.29a11.36,11.36,0,0,0-.49-3.29c-.44-2.2-.82-4.5-1.15-6.92s-.55-4.77-1-7.08q-.66-4.11-1.15-8.39a40.84,40.84,0,0,0-1.48-8.23,14.48,14.48,0,0,0-1-3.79,2.56,2.56,0,0,0-.66-.49q-.16-.33-.66,0a2.48,2.48,0,0,0-1.32,1.64,9.13,9.13,0,0,1-.66,2.31,6.74,6.74,0,0,0-.82,2.47c-.11.76-.22,1.59-.33,2.47-.22,1.2-.49,2.41-.82,3.62s-.5,2.41-.82,3.62L26,102.73l-1.65,8.07-.65,2.63h0a3.52,3.52,0,0,1-1,2.14,4.08,4.08,0,0,1-2.8,1.49,8.94,8.94,0,0,1-2.47.33,21.27,21.27,0,0,0-2.64-.17H3a3.68,3.68,0,0,1-2.3-1A2.91,2.91,0,0,1,0,113.76l.66-3.62h0L3.48,95.65,15.83,34.41l4.61-23q.16-1,.33-2.31c.22-1,.44-1.92.66-2.79s.44-1.71.66-2.47.6-1.54.82-2a5.56,5.56,0,0,1,3-1.65c.32-.11.54-.11.65,0A2.71,2.71,0,0,0,27.36,0ZM501.87,33.09a17.54,17.54,0,0,1,8.57,9.22,11.88,11.88,0,0,1,1,3.95c.22,1.32.39,2.69.5,4.12a9.27,9.27,0,0,1,0,2.47,8.06,8.06,0,0,0,0,2.3,2.08,2.08,0,0,0-.17,1.32,37.87,37.87,0,0,1-.66,4.77c-.32,1.65-.65,3.24-1,4.78l-2.8,14.65-5.44,26.67q-.64,3.14-1.31,6.09a4.64,4.64,0,0,1-3.13,3.63,7.31,7.31,0,0,1-2.31.33H483.6a31.6,31.6,0,0,1-3.46-.17,3.11,3.11,0,0,1-2.14-1.48,4.38,4.38,0,0,1-.33-2.47c.22-1.1.44-2.25.66-3.46l2.31-11.52,4.94-24.53q1.14-6.09,1.64-11.2a15.34,15.34,0,0,0-1.15-8.89,9.23,9.23,0,0,0-5.76-4.61,4.82,4.82,0,0,0-1.81-.33,4.41,4.41,0,0,1-1.65-.33,6.89,6.89,0,0,0-2.14,0,7.74,7.74,0,0,0-1.81.17,7,7,0,0,1-1.32.16,3.12,3.12,0,0,0-1,.17A22.8,22.8,0,0,0,464,51.53a20.18,20.18,0,0,0-8.56,11,152.6,152.6,0,0,0-4.12,16.3l-4.11,20.58-2,10-.66,3a7.34,7.34,0,0,1-1,2.47,4.47,4.47,0,0,1-3.12,2.14,25.37,25.37,0,0,1-4.45.33h-8.23c-1.21,0-2.42-.06-3.62-.17a2.62,2.62,0,0,1-2.31-1.15c-.66-1-.77-2.42-.33-4.28s.83-3.62,1.15-5.27l4.45-22.39,7.24-36.22,1.81-8.4c.22-1.2.44-2.3.66-3.29a4.44,4.44,0,0,1,1.49-2.47,1.68,1.68,0,0,1,1.15-.66,9.54,9.54,0,0,1,1.64-.49H442a8.3,8.3,0,0,1,1.64-.17h8.73a17.43,17.43,0,0,1,2.47.17,7.2,7.2,0,0,1,2.3.33,2,2,0,0,1,1.16,1.48,7.29,7.29,0,0,1,.33,2.3,3.68,3.68,0,0,1-.17,1.16,1.5,1.5,0,0,0,0,1,2.41,2.41,0,0,0,.33,1,8.28,8.28,0,0,1,.82.5,4,4,0,0,0,3.13-1.16,14.07,14.07,0,0,1,3-2.3,49.85,49.85,0,0,1,10.87-5.27,17.73,17.73,0,0,1,3.13-.66c1.1-.11,2.3-.27,3.62-.49a3.27,3.27,0,0,1,1.48,0,3.4,3.4,0,0,0,1.32-.17Q496,30,501.87,33.09ZM203.07,77.87c-.44.11-.83.22-1.16.33a7,7,0,0,0-1.31.17,16.61,16.61,0,0,1-2.47.49c-.88.11-1.81.28-2.8.49a5,5,0,0,1-1.48.17,33.5,33.5,0,0,1-4.45.66,19.59,19.59,0,0,0-4.28.82l-2.63.66h0a9.13,9.13,0,0,0-2.31.66,19.71,19.71,0,0,0-6.75,4.44A12.92,12.92,0,0,0,170,95a7.54,7.54,0,0,0,1,4.6,5.6,5.6,0,0,0,2.8,3,20.34,20.34,0,0,0,4.77,1.48,23.3,23.3,0,0,0,5.6.33,33.3,33.3,0,0,0,5.93-1.15,18,18,0,0,0,7.57-4.12,25.6,25.6,0,0,0,5.27-7.24,19.34,19.34,0,0,0,.82-2.31,12.82,12.82,0,0,1,1-2.63l.33-1.48a8.88,8.88,0,0,0,.49-1.81,14.41,14.41,0,0,0,.17-2,9.24,9.24,0,0,1,.16-1.81,1.23,1.23,0,0,0-.49-1.32A3.21,3.21,0,0,0,203.07,77.87Zm174.8-30.45a1.42,1.42,0,0,1-1.15.16,2.07,2.07,0,0,0-1.16,0,12.89,12.89,0,0,1-2,.49,4.78,4.78,0,0,0-1.81.33,23.07,23.07,0,0,0-12.52,9.06,18,18,0,0,0-1.15,1.81,7.58,7.58,0,0,0-1,2.14,6.21,6.21,0,0,0-.33,2,2,2,0,0,0,.83,1.65,5.94,5.94,0,0,0,3.45.82h27.5c1.76-.11,3-.6,3.62-1.48a4.24,4.24,0,0,0,1-4c-.22-1.64-.39-2.85-.5-3.62a12.86,12.86,0,0,0-4.77-6.75Q384.63,47.58,377.87,47.42Z" transform="translate(0)"/><path d="M326.9,29c-.24.1-.49.22-.77.36l-.43.24c-.29.17-.6.36-.93.58l-.51.34h0l-.54.37h0l-.56.41h0l-.59.43-.3.23-.62.49h0L321,33h0l-.66.55h0l-.68.58h0l-.7.6h0l-.72.63h0l-.74.66-.38.34,2.42,6.8a81.2,81.2,0,0,1,7.8-7.38l.9-.73h0l.07-.05h0l-.63.5h0l-.61.53h0l-.66.6h0l-.62.59h0l-.53.51h0l-.38.37h0l-.82.82h0l-.67.69h0l-1,1h0l-.51.56h0l-.53.58h0l-.84.93h0l-.59.66h0c.6.06,1.26.11,2,.15l1.08.06h0l1.13,0h0l1.18,0h0l1.2,0H332l1.17,0h0a19.35,19.35,0,0,0,1.1-6.88l0-.43h0l0-.41,0-.19-.05-.37h0l-.06-.34,0-.16-.06-.31h0l-.07-.27h0l-.07-.25h0l-.07-.22h0l-.13-.36h0l-.1-.25h0l-.25-.51h0l-.15-.27h0l-.12-.22h0l-.14-.24h0l-.16-.25h0l-.18-.27h0l-.2-.27C331.25,29.66,329.37,28,326.9,29Z" transform="translate(0)" fill="url(#linear-gradient-8)"/><path d="M283,98.65l1-1.83h0l1.37-2.44h0l1.2-2.13c.2-.35.4-.7.59-1l1.33-2.3h0l1.31-2.24.64-1.11c.68-1.14,1.35-2.27,2-3.37L293.79,80h0c1.15-1.88,2.26-3.67,3.36-5.41l1.33-2.07.65-1,.94-1.44h0l1.13-1.7h0l1.1-1.66h0l.5-.74h0l1-1.47h0l.17-.24h0l.31-.46.09-.13h-.42l-.24-.68-.11.18h0c-.51.71-1,1.44-1.52,2.17l-1.61,2.38c-.15.22-.29.44-.45.65-.89,1.34-1.78,2.68-2.66,4l-.87,1.37c-1.18,1.83-2.34,3.69-3.48,5.52s-2.23,3.64-3.32,5.47c-.73,1.21-1.45,2.42-2.15,3.62l-1,1.81q-1.67,2.83-3.21,5.61c-.24.41-.48.84-.7,1.26-.84,1.5-1.66,3-2.45,4.43l.37,1.1.46,0a.37.37,0,0,0,.07-.12c.65-1.32,1.33-2.59,2-3.83Z" transform="translate(0)" fill="none"/><path d="M307.3,58q1.95-2.62,3.89-5.11c1.35-1.72,2.7-3.37,4.07-5l.24-.28c1.35-1.56,2.68-3.06,4-4.49l-2.42-6.77-.29.27h0l-.61.56h0c-1.13,1.06-2.33,2.19-3.55,3.42l-2.11,2.13-1.44,1.49c-.24.25-.48.51-.73.76-1.34,1.43-2.72,2.95-4.11,4.5-.88,1-1.77,2-2.66,3.07l-1,1.2h0l3.08,9.21,1.22-1.67h0Z" transform="translate(0)" fill="url(#linear-gradient-9)"/><path d="M280.89,102.55l-.46.85h0l-1.21,2.26-.62,1.15-.64,1.24h0c-.12.22-.24.43-.34.66L277,110h0l-1.48,2.86h0c1.2.78,2,2.46,2.71,4.34a7.16,7.16,0,0,0-1.56-5.15c6.26,1.21,11.94.42,15.41-3.8.3-.38.61-.78.89-1.2-1.47,1.37-3.07,1.85-5.84,1.34l-.32-.06h0c4.68-1.32,7.16-2.9,9.56-5.73.56-.68,1.14-1.42,1.73-2.24a13.9,13.9,0,0,1-13.6,2.3Z" transform="translate(0)" fill="url(#linear-gradient-10)"/><path d="M283,96.19l1.3-2.28h0l2.14-3.76h0c1.05-1.81,2.12-3.61,3.21-5.43s2.2-3.64,3.32-5.46,2.3-3.7,3.48-5.53,2.36-3.62,3.53-5.41c.43-.65.86-1.27,1.31-1.92.74-1.1,1.5-2.19,2.26-3.28l.12-.18h0l-3-9.18-.17.21-.1.11c-1.25,1.51-2.52,3-3.75,4.61s-2.5,3.22-3.73,4.89c-1,1.41-2,2.82-3.05,4.26l-.6.87h0c-1.22,1.8-2.37,3.57-3.4,5.27-1.17,1.92-2.22,3.77-3.17,5.52q-.93,1.74-1.74,3.36c-.45.91-.87,1.85-1.3,2.77q-1.47,3.25-2.65,6.56l3.09,9.26.61-1.1h0l1.23-2.21L282.5,97l.48-.83Z" transform="translate(0)" fill="url(#linear-gradient-11)"/><path d="M276.84,92.49a66.34,66.34,0,0,0-2.11,7.06l-.3,1.29h0a9.17,9.17,0,0,0-1.23-1.93l-.31-.37-.16-.18-.32-.36h0l-.32-.33h0l-.31-.32h0l-.45-.43h0l-.41-.38h0l-.45-.39h0l-.4-.33h0c2.06,4.17,3.49,8.22,3.23,11.94a11.23,11.23,0,0,1-5.38-1.74,15.61,15.61,0,0,0,2.42,2.42l.31.23.15.11.28.19h0l.26.16h0l.24.13h0l.21.12h0l.19.09h0l.16.07.07,0a11.26,11.26,0,0,0-5.68,1.61l-.67.34h0l-.67.37h0c3.45-.86,6.16-1,8-.28-.89,1.68-1.78,3.41-2.68,5.17l-1.36,2.66q-3.06,6.07-6.19,12.63L261.54,135c-.47,1-.93,2-1.4,3a2.64,2.64,0,0,0,2-1.47l1.58-3.34h0l1.45-3h0l1.86-3.78h0l1.63-3.28h0l1.63-3.21h0l1.54-3h0l2.14-4.12h0l1.52-2.88h0l.53-1h0l.45-.83h0l.41-.78h0l.62-1.16h0l1.28-2.35.66-1.2.6-1.09h0v0h0L277,92.19a1.86,1.86,0,0,0-.1.2Z" transform="translate(0)" fill="url(#linear-gradient-12)"/><path d="M304.26,63.79l-.48.7h0l-1,1.47-1.59,2.4h0l-1.13,1.7h0l-.29.44c-.43.66-.87,1.33-1.3,2l-1.33,2.07h0q-1.32,2.09-2.67,4.3L293.79,80c-1.08,1.78-2.2,3.65-3.33,5.55l-1.29,2.22c-.66,1.12-1.32,2.26-2,3.43L286,93.3l-2,3.52h0l-.6,1.09h0l-1.23,2.23L281,102.42a.3.3,0,0,0-.06.13l3.56.12-.21-.07c4.29.09,10.33-2.23,14.5-5.58a34.25,34.25,0,0,0,5.49-5.68,55.3,55.3,0,0,0,3.84-5.7c1.1-1.84,2.2-3.86,3.28-6.07a13.13,13.13,0,0,1-3.46.65l-.68,0h-.69c4.15-.93,7-3.47,9.35-6.78a14.76,14.76,0,0,1-5,1.38c-.28,0-.57,0-.86,0h-.22a15.74,15.74,0,0,0,3.8-1.45,3.47,3.47,0,0,0,.46-.27l.23-.14c.34-.22.67-.46,1-.7l.61-.49h0a11.2,11.2,0,0,0,1.31-1.35l.26-.3.12-.15.33-.47.15-.22c.61-.89,1.14-1.7,1.58-2.44l.18-.31c.24-.41.45-.78.63-1.13l.22-.42h0l.33-.66c.07-.14.13-.27.18-.4l.1-.22h0l.16-.4.13-.35,0-.14a1.91,1.91,0,0,1-.32.16l-.18.07a16.69,16.69,0,0,1-5.08,1s-.05,0-.07,0h-.34l-.18,0,.1,0h0l-11.21-.42C304.31,63.73,304.29,63.77,304.26,63.79Z" transform="translate(0)" fill="url(#linear-gradient-13)"/><path d="M320,43.32c-.4.45-.81.93-1.24,1.43l-.87,1h0l-.91,1.08h0l-1.09,1.32a.36.36,0,0,0-.07.1c-.62.76-1.26,1.57-1.93,2.41l-1,1.3c-.17.22-.35.44-.52.67l-1.45,1.92h0l-.94,1.26-1.47,2-.5.7c-.5.69-1,1.4-1.52,2.13l-1,1.48h0l-1.07,1.54h0l11.21.42a13.65,13.65,0,0,0,6.74-3.87c.34-.35.68-.73,1-1.12l.34-.4c1.39-1.6,2.79-3.38,4.06-5.17s2.35-3.47,3.23-5c.57-1,1-1.94,1.41-2.78s.57-1.43.8-2.11l-1.16,0h-4.26l-1.22,0h0l-1.2,0-.59,0-1.16,0-.56,0-1.08-.06C321.22,43.43,320.56,43.38,320,43.32Z" transform="translate(0)" fill="url(#linear-gradient-14)"/></svg>