<svg id="Layer_1" data-name="Layer 1" xmlns="http://www.w3.org/2000/svg" viewBox="0 0 206.56 124.02"><title>Nextjs-logo</title><g id="Page-1"><g id="Black-Next.js"><g id="next-black"><path id="EXT" d="M48.94,32.63h39v3.08H52.51v23.2H85.79V62H52.51V87.45h35.8v3.08H48.94Zm42.45,0h4.14L113.87,58.1l18.75-25.47L158.12.29,116.23,60.77l21.59,29.76h-4.3L113.87,63.45,94.15,90.53H89.93l21.75-29.76Zm48,3.08V32.63h44.4v3.08H163.3V90.53h-3.57V35.71Z" transform="translate(-0.2 -0.29)"/><polygon id="Type-something" points="0 32.34 4.46 32.34 66.02 124.02 40.58 90.25 3.73 36.72 3.57 90.25 0 90.25 0 32.34"/><path d="M183.4,86.52a1.29,1.29,0,0,0,0-2.58,1.29,1.29,0,0,0,0,2.58Zm3.51-3.39a3.49,3.49,0,0,0,3.82,3.55,3.59,3.59,0,0,0,3.87-4V73.89h-1.94v8.82c0,1.4-.71,2.14-1.95,2.14a1.73,1.73,0,0,1-1.89-1.72ZM197.15,83c.14,2.23,2,3.66,4.78,3.66,3,0,4.83-1.5,4.83-3.89,0-1.88-1.06-2.91-3.63-3.51l-1.38-.34c-1.63-.38-2.29-.89-2.29-1.78,0-1.13,1-1.86,2.56-1.86a2.38,2.38,0,0,1,2.65,1.87h1.89c-.11-2.11-2-3.59-4.51-3.59-2.74,0-4.56,1.48-4.56,3.71,0,1.83,1,2.92,3.3,3.45l1.61.39c1.66.39,2.39,1,2.39,1.91,0,1.11-1.15,1.92-2.71,1.92s-2.84-.76-3-1.94Z" transform="translate(-0.2 -0.29)"/></g></g></g></svg>