<svg id="Layer_1" data-name="Layer 1" xmlns="http://www.w3.org/2000/svg" viewBox="0 0 2499.17 2499.98"><title>spring-3</title><path d="M2272.79,130.36a1153.86,1153.86,0,0,1-133.44,237A1253.75,1253.75,0,0,0,1253.08.17C565.68.17,0,566.5,0,1254.88a1255.85,1255.85,0,0,0,389.27,909l46.22,41a1253.1,1253.1,0,0,0,807.17,295.21c653.56,0,1203-512.3,1249.5-1165.2,34.18-319.62-59.56-723.86-219.37-1204.59ZM567.3,2171.1A107.34,107.34,0,0,1,484,2210.8c-58.91,0-107.08-48.49-107.08-107.4S425.4,1996,484,1996a106.1,106.1,0,0,1,67.38,24.08c45.89,37.11,53,105.13,15.94,151Zm1700.29-375.6c-309.2,412.37-969.59,273.4-1393,293.25,0,0-75.18,4.56-150.69,16.92,0,0,28.31-12,65.09-26,297.16-103.5,437.77-123.68,618.41-216.44,340.12-173.16,676.33-552,746.31-946.16-129.54,379.18-522.06,705-879.76,837.45-245.08,90.48-687.73,178.36-687.73,178.36l-17.9-9.44c-301.39-146.79-310.5-800,237.27-1010.93C1045.43,820.05,1274.89,870.82,1534,809c276.65-65.75,596.59-273.4,726.78-544.19C2406.56,698,2582,1376.28,2267.59,1795.5Z" transform="translate(0 -0.17)" fill="#77bc1f"/></svg>