<svg id="svg27450" xmlns="http://www.w3.org/2000/svg" xmlns:xlink="http://www.w3.org/1999/xlink"
     viewBox="0 0 249.15 297.07">
    <defs>
        <filter id="filter4487-6" name="filter4487-6">
            <feGaussianBlur result="feGaussianBlur4489-4" stdDeviation="0.64"/>
        </filter>
        <radialGradient id="radial-gradient" cx="-1532.24" cy="-41.44" r="27.39"
                        gradientTransform="translate(-1165.07 109) rotate(180) scale(0.81 0.76)"
                        gradientUnits="userSpaceOnUse">
            <stop offset="0"/>
            <stop offset="1" stop-opacity="0.25"/>
        </radialGradient>
        <filter id="filter4427-5-7" name="filter4427-5-7">
            <feGaussianBlur result="feGaussianBlur4429-4-8" stdDeviation="1.14"/>
        </filter>
        <radialGradient id="radial-gradient-2" cx="312.15" cy="-57.27" r="27.39"
                        gradientTransform="matrix(1, 0, 0, -0.76, -166.99, 109)" xlink:href="#radial-gradient"/>
        <filter id="filter4538-7" name="filter4538-7">
            <feGaussianBlur result="feGaussianBlur4540-9" stdDeviation="0.79"/>
        </filter>
        <radialGradient id="radial-gradient-3" cx="275.55" cy="100.12" r="10.85"
                        gradientTransform="matrix(1, 0, 0, -1.07, -166.99, 254.97)" xlink:href="#radial-gradient"/>
        <filter id="filter4592-2" x="-0.82" y="-0.06" width="2.63" height="1.12" name="filter4592-2">
            <feGaussianBlur result="feGaussianBlur4594-6" stdDeviation="1.45"/>
        </filter>
        <filter id="filter15211-9" x="-0.47" y="-0.27" width="1.94" height="1.55" name="filter15211-9">
            <feGaussianBlur result="feGaussianBlur15213-7" stdDeviation="0.86"/>
        </filter>
        <filter id="filter14706-3" x="-0.6" y="-0.48" width="2.21" height="1.96" name="filter14706-3">
            <feGaussianBlur result="feGaussianBlur14708-8" stdDeviation="2.64"/>
        </filter>
        <filter id="filter15133-1" x="-0.29" y="-0.31" width="1.58" height="1.62" name="filter15133-1">
            <feGaussianBlur result="feGaussianBlur15135-5" stdDeviation="1.74"/>
        </filter>
        <filter id="filter15185-2" x="-0.18" y="-0.16" width="1.36" height="1.32" name="filter15185-2">
            <feGaussianBlur result="feGaussianBlur15187-7" stdDeviation="0.9"/>
        </filter>
        <clipPath id="clip-path" transform="translate(0 0)">
            <path d="M95.72,85.88a11.75,11.75,0,0,0-2.14,4.51,23.92,23.92,0,0,0-.63,5c-.13,3.35.08,6.77-.81,10-1,3.46-3.08,6.46-5.16,9.38-3.6,5.06-7.25,10.25-9,16.2a28.88,28.88,0,0,0-1,11.17,117.91,117.91,0,0,0-10.43,18.78A102.9,102.9,0,0,0,58,192.25a79.93,79.93,0,0,0,5.63,39.09,64,64,0,0,0,16.68,23.25,57.07,57.07,0,0,0,12.19,8.1c15.21,7.48,34,7.49,49-.48,7.82-4.17,14.42-10.26,20.79-16.42,3.83-3.72,7.64-7.52,10.56-12,5.63-8.59,7.59-19,8.81-29.23,2.13-17.84,2.2-36.67-5.62-52.84a58.42,58.42,0,0,0-10.58-15.14,83.11,83.11,0,0,0-6.7-22.55c-2.37-5.15-5.27-10.06-7.47-15.29-.9-2.14-1.69-4.34-2.69-6.44a19.1,19.1,0,0,0-3.93-5.74A16,16,0,0,0,138.54,83a26.64,26.64,0,0,0-7-1.21c-4.77-.24-9.54.38-14.31.19-3.79-.15-7.58-.81-11.37-.59a17.31,17.31,0,0,0-5.55,1.17,11,11,0,0,0-4.56,3.3"
                  fill="none"/>
        </clipPath>
        <filter id="filter30479-2" x="-0.08" y="-0.13" width="1.15" height="1.26" name="filter30479-2">
            <feGaussianBlur result="feGaussianBlur30481-9" stdDeviation="2.04"/>
        </filter>
        <filter id="filter30475-4" name="filter30475-4">
            <feGaussianBlur result="feGaussianBlur30477-9" stdDeviation="0.93"/>
        </filter>
        <clipPath id="clip-path-3" transform="translate(0 0)">
            <path d="M188.11,147.51a32,32,0,0,1,11.14,20,48.22,48.22,0,0,1-1,18.13,147.06,147.06,0,0,1-5.53,17.4,34.37,34.37,0,0,0-2,7,11.58,11.58,0,0,0,1,7.09,10.78,10.78,0,0,0,6.48,4.92,15.54,15.54,0,0,0,8.15.1,19.74,19.74,0,0,0,7.33-3.65c5.51-4.28,8.84-10.94,10.13-17.81s.7-13.95-.5-20.83a140.06,140.06,0,0,0-7.88-27.41,95.6,95.6,0,0,0-9.79-18.52c-3.85-5.66-9.31-10.09-13.34-15.63-1.4-1.93-3.09-3.93-4.47-5.88-3-4.2-2.29-3.41-4.13-6.13-1.34-2-3.45-2.65-5.67-3.51a10.43,10.43,0,0,0-13.81,5.61,16,16,0,0,0-1,9.22,33,33,0,0,0,4.55,11.19,40.07,40.07,0,0,0,8.53,10.65c3.67,3.06,8.1,5.07,11.82,8.06"
                  fill="none"/>
        </clipPath>
        <filter id="filter14666-9" x="-0.12" y="-0.04" width="1.24" height="1.08" name="filter14666-9">
            <feGaussianBlur result="feGaussianBlur14668-7" stdDeviation="1.35"/>
        </filter>
        <clipPath id="clip-path-4" transform="translate(0 0)">
            <path d="M73.48,117.1c-7.07,8-14.35,15.81-18.34,24.5-2,4.42-2.91,9.21-4.27,13.85a103.62,103.62,0,0,1-6,15.34c-2.16,4.58-4.55,9.06-6.94,13.53-1.73,3.26-3.5,6.59-4.1,10.23a21,21,0,0,0,.53,8.66,39.92,39.92,0,0,0,3.24,8.11,79.74,79.74,0,0,0,24.24,27.92,85.3,85.3,0,0,0,14.6,8.53,22.57,22.57,0,0,0,8.77,2.46,10.89,10.89,0,0,0,4.48-.84,8,8,0,0,0,3.48-2.89,8.38,8.38,0,0,0,1.17-5.41,13,13,0,0,0-1.92-5.26c-2.39-3.92-6.16-6.76-9.79-9.57C74.82,220.18,67.23,213.78,60,207a29.81,29.81,0,0,1-5.53-6.29A23.57,23.57,0,0,1,51.79,193a42.65,42.65,0,0,1,1.46-22.13c1-2.76,2.27-5.39,3.51-8,2.17-4.59,4.21-9.27,7.05-13.47,3.54-5.23,8.27-9.66,11.15-15.28,2.44-4.74,3.42-10.07,4.37-15.31.73-4.11,2.15-8.13,2.87-12.24-1.41,2.67-5.94,7.05-8.72,10.53Z"
                  fill="none"/>
        </clipPath>
        <filter id="filter15053-7" x="-0.1" y="-0.04" width="1.2" height="1.09" name="filter15053-7">
            <feGaussianBlur result="feGaussianBlur15055-3" stdDeviation="1.13"/>
        </filter>
        <filter id="filter15115-3" name="filter15115-3">
            <feGaussianBlur result="feGaussianBlur15117-8" stdDeviation="2.21"/>
        </filter>
        <linearGradient id="linear-gradient" x1="336.46" y1="-21.22" x2="340.16" y2="-48.8"
                        gradientTransform="matrix(1.03, 0, 0, -1, -155.21, 222.06)" gradientUnits="userSpaceOnUse">
            <stop offset="0"/>
            <stop offset="1" stop-opacity="0"/>
        </linearGradient>
        <linearGradient id="linear-gradient-2" x1="439.13" y1="-69.75" x2="487.21" y2="8.21"
                        gradientTransform="matrix(1, 0, 0, -1, -266.99, 222.06)" gradientUnits="userSpaceOnUse">
            <stop offset="0" stop-color="#3e2a06"/>
            <stop offset="1" stop-color="#ad780a"/>
        </linearGradient>
        <clipPath id="clip-path-5" transform="translate(0 0)">
            <path d="M246.2,258.68c-2.62,3.11-6.27,5.17-9.89,7-6.19,3.15-12.61,5.92-18.42,9.71A75.5,75.5,0,0,0,207,284.16a86.94,86.94,0,0,1-8.84,8,25.32,25.32,0,0,1-11,4.65,26.31,26.31,0,0,1-14.3-2.16c-3.13-1.37-6.15-3.32-8-6.23s-2.23-6.49-2.23-9.92c0-6.08,1.12-12.09,2.18-18.08.88-5,1.72-10,2.26-15a155.18,155.18,0,0,0,.32-27.52,20.81,20.81,0,0,1,0-4.6,5.84,5.84,0,0,1,6-5.45,20.87,20.87,0,0,1,4.24.35,89.25,89.25,0,0,1,9.89,1.71c2,.54,4,1.26,6.07,1.82a27.88,27.88,0,0,0,10.47.95c3.77-.44,7.43-1.86,11.22-1.77a16.69,16.69,0,0,1,4.59.8,9.77,9.77,0,0,1,4.12,2.3,8.9,8.9,0,0,1,1.88,3.07,18.78,18.78,0,0,1,1.17,5.25,44.32,44.32,0,0,0,.41,4.75,15.57,15.57,0,0,0,3.53,6.94,45.5,45.5,0,0,0,5.69,5.41c2,1.68,4,3.35,6.17,4.83,1,.69,2.06,1.34,3,2.1a9.42,9.42,0,0,1,2.44,2.71,6.14,6.14,0,0,1,.54,4.88,13.79,13.79,0,0,1-2.67,4.69Z"
                  fill="none"/>
        </clipPath>
        <filter id="filter14416-8" x="-0.15" y="-0.14" width="1.29" height="1.29" name="filter14416-8">
            <feGaussianBlur result="feGaussianBlur14418-5" stdDeviation="4.78"/>
        </filter>
        <clipPath id="clip-path-6" transform="translate(0 0)">
            <path d="M246.2,258.68c-2.62,3.11-6.27,5.17-9.89,7-6.19,3.15-12.61,5.92-18.42,9.71A75.5,75.5,0,0,0,207,284.16a86.94,86.94,0,0,1-8.84,8,25.32,25.32,0,0,1-11,4.65,26.31,26.31,0,0,1-14.3-2.16c-3.13-1.37-6.15-3.32-8-6.23s-2.23-6.49-2.23-9.92c0-6.08,1.12-12.09,2.18-18.08.88-5,1.72-10,2.26-15a155.18,155.18,0,0,0,.32-27.52,20.81,20.81,0,0,1,0-4.6,5.84,5.84,0,0,1,6-5.45,20.87,20.87,0,0,1,4.24.35,89.25,89.25,0,0,1,9.89,1.71c2,.54,4,1.26,6.07,1.82a27.88,27.88,0,0,0,10.47.95c3.77-.44,7.43-1.86,11.22-1.77a16.69,16.69,0,0,1,4.59.8,9.77,9.77,0,0,1,4.12,2.3,8.9,8.9,0,0,1,1.88,3.07,18.78,18.78,0,0,1,1.17,5.25,44.32,44.32,0,0,0,.41,4.75,15.67,15.67,0,0,0,3.53,6.94,45.5,45.5,0,0,0,5.69,5.41c2,1.68,4,3.35,6.17,4.83,1,.69,2.06,1.34,3,2.1a9.42,9.42,0,0,1,2.44,2.71,6.14,6.14,0,0,1,.54,4.88,13.79,13.79,0,0,1-2.67,4.69Z"
                  fill="none"/>
        </clipPath>
        <filter id="filter14432-2" x="-0.12" y="-0.12" width="1.23" height="1.25" name="filter14432-2">
            <feGaussianBlur result="feGaussianBlur14434-2" stdDeviation="3.17"/>
        </filter>
        <filter id="filter17044" x="-0.02" y="-0.13" width="1.04" height="1.26" name="filter17044">
            <feGaussianBlur result="feGaussianBlur17046" stdDeviation="0.48"/>
        </filter>
        <linearGradient id="linear-gradient-3" x1="364.29" y1="9.4" x2="362.87" y2="-3.33"
                        gradientTransform="matrix(1, 0, 0, -1, -166.99, 220.06)" gradientUnits="userSpaceOnUse">
            <stop offset="0" stop-color="#f3cd0c"/>
            <stop offset="1" stop-color="#f3cd0c" stop-opacity="0"/>
        </linearGradient>
        <linearGradient id="linear-gradient-4" x1="118.43" y1="-4.34" x2="166.16" y2="-84.42"
                        gradientTransform="matrix(1, 0, 0, -1, -96.99, 222.06)" gradientUnits="userSpaceOnUse">
            <stop offset="0" stop-color="#b98309"/>
            <stop offset="1" stop-color="#382605"/>
        </linearGradient>
        <clipPath id="clip-path-8" transform="translate(0 0)">
            <path d="M40.59,203.08a9.15,9.15,0,0,1,5.1-.47,12.71,12.71,0,0,1,4.74,2c2.87,2,5,4.78,7,7.58,4.67,6.44,9.16,13,13.24,19.83C74,237.58,77,243.3,80.86,248.5c2.5,3.39,5.31,6.54,7.82,9.92a34.19,34.19,0,0,1,5.84,11.12,22.32,22.32,0,0,1-1.63,15.95,21.14,21.14,0,0,1-7.77,8.34,20.15,20.15,0,0,1-11,2.87c-6.11-.23-11.7-3.29-17.38-5.55-11.58-4.61-24.16-6.06-36.1-9.65-3.67-1.11-7.27-2.41-11-3.43a32.72,32.72,0,0,1-4.86-1.55A8.34,8.34,0,0,1,.93,273.3,7.22,7.22,0,0,1,0,269.52a12,12,0,0,1,.77-3.85c.9-2.48,2.35-4.72,3.32-7.16a29.92,29.92,0,0,0,1.67-12.68c-.21-4.29-.91-8.55-1.2-12.83a22.48,22.48,0,0,1,.18-5.74,9.51,9.51,0,0,1,2.56-5,9.45,9.45,0,0,1,4.7-2.32,23.3,23.3,0,0,1,5.28-.34,49.31,49.31,0,0,0,5.3,0,12,12,0,0,0,5.07-1.42,11.94,11.94,0,0,0,3.65-3.43,41.91,41.91,0,0,0,2.6-4.32,27.28,27.28,0,0,1,2.75-4.22,10.45,10.45,0,0,1,3.94-3.07"
                  fill="none"/>
        </clipPath>
        <filter id="filter14148-8" x="-0.11" y="-0.11" width="1.22" height="1.22" name="filter14148-8">
            <feGaussianBlur result="feGaussianBlur14150-8" stdDeviation="3.92"/>
        </filter>
        <filter id="filter14140-3" name="filter14140-3">
            <feGaussianBlur result="feGaussianBlur14142-5" stdDeviation="2.44"/>
        </filter>
        <filter id="filter14176-5" name="filter14176-5">
            <feGaussianBlur result="feGaussianBlur14178-0" stdDeviation="0.37"/>
        </filter>
        <linearGradient id="linear-gradient-5" x1="171.87" y1="-23.83" x2="186.89" y2="-52.12"
                        gradientTransform="matrix(1, 0, 0, -1, -97.52, 220.29)" gradientUnits="userSpaceOnUse">
            <stop offset="0" stop-color="#ebc40c"/>
            <stop offset="1" stop-color="#ebc40c" stop-opacity="0"/>
        </linearGradient>
        <filter id="filter14897-2" x="-0.2" y="-0.23" width="1.4" height="1.47" name="filter14897-2">
            <feGaussianBlur result="feGaussianBlur14899-5" stdDeviation="2.84"/>
        </filter>
        <radialGradient id="radial-gradient-4" cx="198.68" cy="273.44" r="16.85"
                        gradientTransform="matrix(1.31, 0.35, 0.37, -1.37, -164.34, 531.58)"
                        gradientUnits="userSpaceOnUse">
            <stop offset="0" stop-color="#110800"/>
            <stop offset="0.59" stop-color="#a65a00" stop-opacity="0.8"/>
            <stop offset="1" stop-color="#ff921e" stop-opacity="0"/>
        </radialGradient>
        <filter id="filter14951-8" x="-0.09" y="-0.11" width="1.18" height="1.21" name="filter14951-8">
            <feGaussianBlur result="feGaussianBlur14953-7" stdDeviation="1.3"/>
        </filter>
        <radialGradient id="radial-gradient-5" cx="227.24" cy="171.88" r="16.85"
                        gradientTransform="matrix(1.31, 0.25, 0.37, -0.99, -164.34, 333.4)"
                        xlink:href="#radial-gradient-4"/>
        <clipPath id="clip-path-10" transform="translate(0 0)">
            <path d="M219.2,207.39a7.43,7.43,0,0,0-2-2.87,10.56,10.56,0,0,0-3-1.85,33.08,33.08,0,0,0-6.84-1.7c-2.17-.41-4.34-.9-6.52-1.27a17.67,17.67,0,0,0-6.87-.13,11.72,11.72,0,0,0-5.27,2.82,15.15,15.15,0,0,0-3.49,4.89,21.13,21.13,0,0,0-1.65,10.4A12.57,12.57,0,0,0,186.2,225a11.34,11.34,0,0,0,5.43,3.22,18.36,18.36,0,0,0,10.86-.15,28.58,28.58,0,0,0,14.33-10.78,15.75,15.75,0,0,0,2.56-5.41,8,8,0,0,0-.18-4.51"
                  fill="none"/>
        </clipPath>
        <filter id="filter14812-5" x="-0.07" y="-0.15" width="1.14" height="1.3" name="filter14812-5">
            <feGaussianBlur result="feGaussianBlur14814-2" stdDeviation="1.02"/>
        </filter>
        <radialGradient id="radial-gradient-6" cx="1890.7" cy="306.85" r="20.54"
                        gradientTransform="matrix(0.36, 0.16, 0.07, -0.17, -489.92, -40.34)"
                        gradientUnits="userSpaceOnUse">
            <stop offset="0" stop-color="#7c7c7c"/>
            <stop offset="1" stop-color="#7c7c7c" stop-opacity="0.33"/>
        </radialGradient>
        <filter id="filter14812-0-9" x="-0.07" y="-0.15" width="1.14" height="1.3" name="filter14812-0-9">
            <feGaussianBlur result="feGaussianBlur14814-6-7" stdDeviation="1.02"/>
        </filter>
        <linearGradient id="linear-gradient-6" x1="358.74" y1="14.97" x2="361.74" y2="15.1"
                        gradientTransform="matrix(1, 0, 0, -1, -166.99, 222.06)" xlink:href="#radial-gradient-6"/>
        <radialGradient id="radial-gradient-7" cx="399.84" cy="212.05" r="14.57"
                        gradientTransform="matrix(0.82, -0.03, -0.03, -1.25, -220.08, 338.02)"
                        gradientUnits="userSpaceOnUse">
            <stop offset="0" stop-color="#fefefc"/>
            <stop offset="0.76" stop-color="#fefefc"/>
            <stop offset="1" stop-color="#d4d4d4"/>
        </radialGradient>
        <filter id="filter29493-2" x="-0.23" y="-0.15" width="1.47" height="1.29" name="filter29493-2">
            <feGaussianBlur result="feGaussianBlur29495-7" stdDeviation="0.51"/>
        </filter>
        <linearGradient id="linear-gradient-7" x1="164.21" y1="168.03" x2="170.04" y2="157.6"
                        gradientTransform="matrix(1, 0, 0, -1, -66.99, 222.06)" gradientUnits="userSpaceOnUse">
            <stop offset="0" stop-color="#757574" stop-opacity="0"/>
            <stop offset="0.26" stop-color="#757574"/>
            <stop offset="0.5" stop-color="#757574"/>
            <stop offset="1" stop-color="#757574" stop-opacity="0"/>
        </linearGradient>
        <clipPath id="clip-path-12" transform="translate(0 0)">
            <path d="M97.24,44.42a7.73,7.73,0,0,0-4.78,2.14,10.8,10.8,0,0,0-2.79,4.51c-1.13,3.38-.88,7-.62,10.6a31.12,31.12,0,0,0,1.68,9.51,12.37,12.37,0,0,0,2.58,4.06,8.85,8.85,0,0,0,4.12,2.43,8.22,8.22,0,0,0,4.48-.16,9.76,9.76,0,0,0,3.85-2.34A12.84,12.84,0,0,0,109,69.49a22.72,22.72,0,0,0,.75-6.57,27.53,27.53,0,0,0-1.26-8.16,18.47,18.47,0,0,0-4.18-7.09,11.55,11.55,0,0,0-3.2-2.39,7.93,7.93,0,0,0-3.88-.86"
                  fill="none"/>
        </clipPath>
        <radialGradient id="radial-gradient-8" cx="3155.18" cy="-2194.32" r="35.51"
                        gradientTransform="matrix(0.2, -0.03, -0.03, -0.19, -604.99, -253.11)"
                        gradientUnits="userSpaceOnUse">
            <stop offset="0" stop-color="#c8c8c8"/>
            <stop offset="1" stop-color="#797978"/>
        </radialGradient>
        <filter id="filter29447-1" name="filter29447-1">
            <feGaussianBlur result="feGaussianBlur29449-4" stdDeviation="0.14"/>
        </filter>
        <linearGradient id="linear-gradient-8" x1="254.41" y1="185.56" x2="267.81" y2="172.66"
                        gradientTransform="matrix(1, 0, 0, -1, -156.99, 222.06)" gradientUnits="userSpaceOnUse">
            <stop offset="0" stop-color="#646464" stop-opacity="0"/>
            <stop offset="0.31" stop-color="#646464" stop-opacity="0.58"/>
            <stop offset="0.47" stop-color="#646464"/>
            <stop offset="0.73" stop-color="#646464" stop-opacity="0.26"/>
            <stop offset="1" stop-color="#646464" stop-opacity="0"/>
        </linearGradient>
        <radialGradient id="radial-gradient-9" cx="145.2" cy="219.05" r="14.57"
                        gradientTransform="matrix(1.09, -0.03, -0.04, -1.25, -12.78, 338.02)"
                        xlink:href="#radial-gradient-7"/>
        <filter id="filter28927-8" x="-0.16" y="-0.21" width="1.32" height="1.42" name="filter28927-8">
            <feGaussianBlur result="feGaussianBlur28929-2" stdDeviation="0.25"/>
        </filter>
        <filter id="filter28949-8" x="-0.18" y="-0.18" width="1.36" height="1.36" name="filter28949-8">
            <feGaussianBlur result="feGaussianBlur28951-1" stdDeviation="0.52"/>
        </filter>
        <linearGradient id="linear-gradient-9" x1="213.02" y1="167.24" x2="219.74" y2="159.28"
                        gradientTransform="matrix(1, 0, 0, -1, -76.99, 222.06)" gradientUnits="userSpaceOnUse">
            <stop offset="0" stop-color="#949494" stop-opacity="0.39"/>
            <stop offset="0.5" stop-color="#949494"/>
            <stop offset="1" stop-color="#949494" stop-opacity="0.39"/>
        </linearGradient>
        <clipPath id="clip-path-13" transform="translate(0 0)">
            <path d="M128.76,44.42a16.42,16.42,0,0,0-6.25,7.75c-1.43,4-.88,8.49.5,12.5s3.8,8,7.38,10.52a13.63,13.63,0,0,0,6,2.34,11,11,0,0,0,6.34-1.11A12.12,12.12,0,0,0,148,70.64a21,21,0,0,0,1.74-7.72,26.07,26.07,0,0,0-1.25-10A16.77,16.77,0,0,0,142,44.26a12.59,12.59,0,0,0-5.11-1.94,11,11,0,0,0-5.42.6,13.84,13.84,0,0,0-2.75,1.5"
                  fill="none"/>
        </clipPath>
        <linearGradient id="linear-gradient-10" x1="338.48" y1="182.11" x2="359.85" y2="169.61"
                        gradientTransform="matrix(1, 0, 0, -1, -206.99, 222.06)" gradientUnits="userSpaceOnUse">
            <stop offset="0" stop-color="#747474"/>
            <stop offset="0.13" stop-color="#8c8c8c"/>
            <stop offset="0.25" stop-color="#a4a4a4"/>
            <stop offset="0.5" stop-color="#d4d4d4"/>
            <stop offset="0.62" stop-color="#d4d4d4"/>
            <stop offset="1" stop-color="#7c7c7c"/>
        </linearGradient>
        <filter id="filter29350-1" name="filter29350-1">
            <feGaussianBlur result="feGaussianBlur29352-7" stdDeviation="0.15"/>
        </filter>
        <linearGradient id="linear-gradient-11" x1="295.2" y1="186.16" x2="309.43" y2="172.73"
                        xlink:href="#linear-gradient-8"/>
        <radialGradient id="radial-gradient-10" cx="-42.21" cy="-489.74" r="15.38"
                        gradientTransform="matrix(0.7, -0.51, -0.46, -0.63, -83.45, -261.84)"
                        gradientUnits="userSpaceOnUse">
            <stop offset="0" stop-color="#020204"/>
            <stop offset="0.73" stop-color="#020204"/>
            <stop offset="1" stop-color="#5c5c5c"/>
        </radialGradient>
        <radialGradient id="radial-gradient-11" cx="74.75" cy="-457.41" r="31.11"
                        gradientTransform="matrix(0.94, -0.39, -0.27, -0.66, -67.46, -189.88)"
                        gradientUnits="userSpaceOnUse">
            <stop offset="0" stop-color="#d2940a"/>
            <stop offset="0.75" stop-color="#d89c08"/>
            <stop offset="0.87" stop-color="#b67e07"/>
            <stop offset="1" stop-color="#946106"/>
        </radialGradient>
        <filter id="filter28502-8" x="-0.15" y="-0.21" width="1.31" height="1.43" name="filter28502-8">
            <feGaussianBlur result="feGaussianBlur28504-3" stdDeviation="0.9"/>
        </filter>
        <filter id="filter15145-6" name="filter15145-6">
            <feGaussianBlur result="feGaussianBlur15147-1" stdDeviation="0.76"/>
        </filter>
        <linearGradient id="linear-gradient-12" x1="256.85" y1="142" x2="313.33" y2="142.45"
                        gradientTransform="matrix(1, 0, 0, -1, -166.99, 222.06)" gradientUnits="userSpaceOnUse">
            <stop offset="0" stop-color="#ad780a"/>
            <stop offset="0.12" stop-color="#d89e08"/>
            <stop offset="0.26" stop-color="#edb80b"/>
            <stop offset="0.39" stop-color="#ebc80d"/>
            <stop offset="0.53" stop-color="#f5d838"/>
            <stop offset="0.77" stop-color="#f6d811"/>
            <stop offset="1" stop-color="#f5cd31"/>
        </linearGradient>
        <filter id="filter14963-7" x="-0.16" y="-0.13" width="1.32" height="1.26" name="filter14963-7">
            <feGaussianBlur result="feGaussianBlur14965-0" stdDeviation="0.85"/>
        </filter>
        <filter id="filter15177-1" name="filter15177-1">
            <feGaussianBlur result="feGaussianBlur15179-3" stdDeviation="0.11"/>
        </filter>
        <radialGradient id="radial-gradient-12" cx="77.67" cy="-125.67" r="3.23"
                        gradientTransform="matrix(1, 0, 0, -0.58, 43.01, -4.03)" gradientUnits="userSpaceOnUse">
            <stop offset="0" stop-color="#3a2903"/>
            <stop offset="0.55" stop-color="#735208"/>
            <stop offset="1" stop-color="#ac8c04"/>
        </radialGradient>
        <filter id="filter15173-0" x="-0.12" y="-0.11" width="1.23" height="1.21" name="filter15173-0">
            <feGaussianBlur result="feGaussianBlur15175-4" stdDeviation="0.11"/>
        </filter>
        <radialGradient id="radial-gradient-13" cx="63.13" cy="179.81" r="1.54"
                        gradientTransform="matrix(1, 0, 0, -1.08, 43.01, 262.8)" xlink:href="#radial-gradient-12"/>
        <clipPath id="clip-path-14" transform="translate(0 0)">
            <path d="M116.73,64.69A23.17,23.17,0,0,0,108.62,66a27.7,27.7,0,0,0-12,8.19,23.53,23.53,0,0,0-5.13,4.68,11.06,11.06,0,0,0-2,3.41,26.61,26.61,0,0,0-.66,3.07,5.7,5.7,0,0,0-.17,1.16,1.9,1.9,0,0,0,.09.58.77.77,0,0,0,.07.16,2.48,2.48,0,0,0,.27.65,4.08,4.08,0,0,0,1.07,1.12c.42.3.88.55,1.31.83a23.66,23.66,0,0,1,5.93,5.71c2.27,2.92,4.27,6.16,7.3,8.29a15.4,15.4,0,0,0,7.29,2.61,23.78,23.78,0,0,0,9.09-1,32.14,32.14,0,0,0,7.78-3.42c4.6-2.84,8.44-7,13.51-8.86,1.1-.41,2.26-.7,3.32-1.2a5.2,5.2,0,0,0,2.59-2.32,11.17,11.17,0,0,0,.63-3.32c.17-1.2.55-2.36.76-3.56a6,6,0,0,0-.28-3.57,4.29,4.29,0,0,0-.42-.68,2.5,2.5,0,0,0-.37-1.27,4.44,4.44,0,0,0-2.1-1.69,21.37,21.37,0,0,0-3.61-1.06,51.65,51.65,0,0,1-10.83-3.95c-1.72-.85-3.39-1.8-5.08-2.7a29.53,29.53,0,0,0-5.39-2.4,17.79,17.79,0,0,0-4.86-.75Z"
                  fill="none"/>
        </clipPath>
        <filter id="filter28584-4" x="-0.11" y="-0.14" width="1.21" height="1.27" name="filter28584-4">
            <feGaussianBlur result="feGaussianBlur28586-3" stdDeviation="0.26"/>
        </filter>
        <linearGradient id="linear-gradient-13" x1="210.21" y1="276.1" x2="210.65" y2="273.35"
                        gradientTransform="matrix(1.1, 0, 0.17, -1.52, -130.91, 497.46)" gradientUnits="userSpaceOnUse">
            <stop offset="0" stop-color="#f5ce2d"/>
            <stop offset="1" stop-color="#d79b08"/>
        </linearGradient>
    </defs>
    <title>Tux</title>
    <g id="g463">
        <path id="path28712-2"
              d="M123.82,0a42.9,42.9,0,0,0-20.73,4.78A37.35,37.35,0,0,0,87.5,21c-3.38,6.82-4.71,14.11-4.91,22.13a449.29,449.29,0,0,0,1.49,45.73c.31,4.41.86,7,.3,11.53C82.49,110,74.06,116.5,69.57,125c-4.95,9.33-7,19.88-10.78,29.76-3.42,9-8.23,17.52-11.47,26.63-4.54,12.73-5.89,26.73-2.9,39.91a69.07,69.07,0,0,0,13.49,27.53c-.93,1.68-1.83,3.38-2.79,5-3,5.14-6.62,10-8.32,15.72a19,19,0,0,0-.64,8.81,12.66,12.66,0,0,0,4.36,7.58,13.16,13.16,0,0,0,5.25,2.43,23.07,23.07,0,0,0,5.8.5c7.4-.15,14.56-2.4,21.72-4.28,4.23-1.11,8.51-2.1,12.8-3,15.24-3.12,32.25-1.87,46.4.18,4.79.72,9.55,1.67,14.26,2.81,7.37,1.79,14.73,4.07,22.31,4.28a24.28,24.28,0,0,0,6-.46,13.42,13.42,0,0,0,5.41-2.47,12.63,12.63,0,0,0,4.35-7.59,18.9,18.9,0,0,0-.64-8.83c-1.72-5.71-5.39-10.57-8.44-15.69-1.2-2-2.32-4.1-3.51-6.12A100.49,100.49,0,0,0,203,212.43c4.66-14.28,5.52-29.65,3.56-44.54s-6.69-29.32-12.9-43c-7.8-17.14-14.36-23.33-19.11-38.38-5.13-16.26-.89-35.51-4.71-50.27a51.9,51.9,0,0,0-6.32-14.19A48.86,48.86,0,0,0,151.16,8.75,47.68,47.68,0,0,0,123.82,0Z"
              transform="translate(0 0)" fill="#020204"/>
        <path id="path29719-5"
              d="M95.72,85.88a11.75,11.75,0,0,0-2.14,4.51,23.92,23.92,0,0,0-.63,5c-.13,3.35.08,6.77-.81,10-1,3.46-3.08,6.46-5.16,9.38-3.6,5.06-7.25,10.25-9,16.2a28.88,28.88,0,0,0-1,11.17,117.91,117.91,0,0,0-10.43,18.78A102.9,102.9,0,0,0,58,192.25a79.93,79.93,0,0,0,5.63,39.09,64,64,0,0,0,16.68,23.25,57.07,57.07,0,0,0,12.19,8.1c15.21,7.48,34,7.49,49-.48,7.82-4.17,14.42-10.26,20.79-16.42,3.83-3.72,7.64-7.52,10.56-12,5.63-8.59,7.59-19,8.81-29.23,2.13-17.84,2.2-36.67-5.62-52.84a58.42,58.42,0,0,0-10.58-15.14,83.11,83.11,0,0,0-6.7-22.55c-2.37-5.15-5.27-10.06-7.47-15.29-.9-2.14-1.69-4.34-2.69-6.44a19.1,19.1,0,0,0-3.93-5.74A16,16,0,0,0,138.54,83a26.64,26.64,0,0,0-7-1.21c-4.77-.24-9.54.38-14.31.19-3.79-.15-7.58-.81-11.37-.59a17.31,17.31,0,0,0-5.55,1.17,11,11,0,0,0-4.56,3.3"
              transform="translate(0 0)" fill="#fdfdfb"/>
    </g>
    <g id="g562">
        <g id="path4400-1" opacity="0.25" filter="url(#filter4487-6)" style="isolation:isolate">
            <path d="M78.93,133.66c1,1.52-.63,6.77,23,3.41a81.62,81.62,0,0,0-8.25,1.41c-6.38,2.13-11.93,4.51-16.21,7.67s-7.35,7.2-11.24,10.7c0,0,6.3-11.52,7.87-15s-.26-3.31,1-8.41a40.12,40.12,0,0,1,4.29-10S76.93,130.65,78.93,133.66Z"
                  transform="translate(0 0)" fill="url(#radial-gradient)"/>
        </g>
        <g id="path4400-2-8" opacity="0.42" filter="url(#filter4427-5-7)" style="isolation:isolate">
            <path d="M155.06,132.28c-4.82,3.36-7.65,3-13.5,3.62s-21.7.42-21.7.42a41.92,41.92,0,0,1,7.37.91c5.09.94,15.46,1.85,21.3,4.07s8,2.86,11.51,5.1c5.05,3.19,8.76,8.2,13.59,11.7a17.28,17.28,0,0,0-1.72-8.11c-1.94-3.47-7.19-8.94-8.73-14s-2.27-15.14-2.27-15.14-1,8.11-5.85,11.47Z"
                  transform="translate(0 0)" fill="url(#radial-gradient-2)"/>
        </g>
        <g id="path4491-9" opacity="0.2" filter="url(#filter4538-7)" style="isolation:isolate">
            <path d="M109.68,125.1c-.18,1.46-.41,2.91-.7,4.35a12.36,12.36,0,0,1-.55,2.09,4.84,4.84,0,0,1-1.19,1.8,6.48,6.48,0,0,1-1.62,1,24.36,24.36,0,0,1-7.1,2c1,.07,2,.16,2.93.26a14,14,0,0,1,1.83.3,4.94,4.94,0,0,1,1.69.75,4.75,4.75,0,0,1,1.3,1.55,10.06,10.06,0,0,1,1,3.91,32.11,32.11,0,0,1,0,5.19,16.33,16.33,0,0,1,.72-3.4,14.8,14.8,0,0,1,3.12-5.39,11.68,11.68,0,0,1,1.86-1.65,10.33,10.33,0,0,1,7.24-1.76,11.29,11.29,0,0,1-7.2-2.23,9.34,9.34,0,0,1-2.58-2.91,8.12,8.12,0,0,1-.75-5.86"
                  transform="translate(0 0)" fill="url(#radial-gradient-3)"/>
        </g>
        <g id="path4542-7" opacity="0.11" filter="url(#filter4592-2)" style="isolation:isolate">
            <path d="M103.51,159.14A88.59,88.59,0,0,0,101,173.42c-.64,6.81-.49,13.67-.85,20.5-.31,5.8-1,11.66,0,17.38a29.85,29.85,0,0,0,2.56,7.87,28,28,0,0,0,.42-2.87c.43-4.64-.35-9.29-.62-13.94-.46-8.15.67-16.29,1.13-24.44a149,149,0,0,0-.13-18.78h0"
                  transform="translate(0 0)"/>
        </g>
        <g id="path28767-9-3" opacity="0.25" filter="url(#filter15211-9)" style="isolation:isolate">
            <path d="M81.59,113.07c-.12-1.44-2.17-1.65-3.09-.94-.77.61-1.49,2.67-.83,3.48C78.76,116.92,81.75,115,81.59,113.07Z"
                  transform="translate(0 0)" fill="#7c7c7c"/>
        </g>
        <g id="path15189-4" opacity="0.75" filter="url(#filter14706-3)" style="isolation:isolate">
            <path d="M185,152.29c1.19-.19,8.52,6,7.51,8.36s-2.88.92-4.23.93-5,1.69-5.64.64,1.62-3.52,2.8-5.58c1-1.66-1.63-4.17-.44-4.35Z"
                  transform="translate(0 0)" fill="#7c7c7c"/>
        </g>
        <g id="path28767-3" filter="url(#filter15133-1)">
            <path d="M140.25,12.91c-2.56,1.81-1.44,4.07-.34,6.34s-2.42,8.8-2.46,9.08,6.94-3.31,8.85-5.65c2.24-2.76,7.92,3.73,7.61,2.75C153.91,23.66,142.82,11.1,140.25,12.91Z"
                  transform="translate(0 0)" fill="#7c7c7c"/>
        </g>
        <g id="path4596-3" filter="url(#filter15185-2)">
            <path d="M159.7,88.92c-2.16,2,1,4.93,2.52,8.41.94,2.16,3.53,5.2,6,4.72,1.89-.37,3.06-3.08,2.88-5-.35-3.69-3.46-4.56-5.72-5.82C163.62,90.23,161.22,87.54,159.7,88.92Z"
                  transform="translate(0 0)" fill="#838384"/>
        </g>
        <g clip-path="url(#clip-path)">
            <g id="path28461-8-7" filter="url(#filter30479-2)">
                <path d="M93.38,103.66a28.27,28.27,0,0,0,9.19,12.45,20,20,0,0,0,4.36,2.81,10.33,10.33,0,0,0,5.06,1,12,12,0,0,0,4.79-1.65c1.48-.84,2.86-1.85,4.3-2.76,2.46-1.56,5.1-2.82,7.65-4.22a43.76,43.76,0,0,0,8.67-6,42,42,0,0,1,3.6-3.2,7.14,7.14,0,0,1,4.49-1.49,24,24,0,0,1,3.52.85,4.91,4.91,0,0,0,1.79.09,2.57,2.57,0,0,0,2.31-2.81,4.93,4.93,0,0,0-.63-2.11,27.75,27.75,0,0,1-2.2-3.84,11.39,11.39,0,0,1-.29-3.91,8,8,0,0,0-.6-3.86A5,5,0,0,0,147.27,83a7.8,7.8,0,0,0-2.88-.81,40.16,40.16,0,0,0-6,.32c-2.66.15-5.33-.19-8,0-3.31.2-6.56,1.17-9.88,1.17-3.78,0-7.56-1.23-11.3-.64a30.51,30.51,0,0,0-4.68,1.35,14.46,14.46,0,0,1-4.76,1c-1.84,0-3.63-.67-5.46-.8a6.46,6.46,0,0,0-2.73.32,3.84,3.84,0,0,0-2.07,1.75,3.8,3.8,0,0,0-.39,1.52,5.91,5.91,0,0,0,.18,1.57,26.53,26.53,0,0,0,1.11,3c1.4,3.55,1.69,7.45,2.94,11"
                      transform="translate(0 0)" opacity="0.26"/>
            </g>
        </g>
        <g clip-path="url(#clip-path)">
            <g id="path28461-84-3" opacity="0.3" filter="url(#filter30475-4)" style="isolation:isolate">
                <path d="M88.63,89.59A38,38,0,0,1,97.4,97c2.31,2.65,4.28,5.66,7.3,7.63a16.09,16.09,0,0,0,7.29,2.41,25.86,25.86,0,0,0,9.09-1,33.84,33.84,0,0,0,7.78-3.15c4.6-2.61,8.44-6.44,13.51-8.16,1.1-.37,2.26-.64,3.32-1.1a5.16,5.16,0,0,0,2.59-2.14,9.59,9.59,0,0,0,.63-3.06c.17-1.11.55-2.18.76-3.28a5.15,5.15,0,0,0-.28-3.29,4.52,4.52,0,0,0-2.1-1.92,7.58,7.58,0,0,0-2.91-.65,46.48,46.48,0,0,0-6,.55c-2.65.22-5.32-.09-8,0-3.31.09-6.57.78-9.88.93-3.77.16-7.53-.39-11.3-.51a24.94,24.94,0,0,0-4.89.23A12.59,12.59,0,0,0,99.8,82.1,39.5,39.5,0,0,0,96.2,85a11,11,0,0,1-2,1.24,6.05,6.05,0,0,1-2.27.59c-.4,0-.81,0-1.22,0a2.7,2.7,0,0,0-1.7,1,2.25,2.25,0,0,0-.42,1.8h0"
                      transform="translate(0 0)"/>
            </g>
        </g>
    </g>
    <g id="g481">
        <path id="path29705-5-0"
              d="M188.11,147.51a32,32,0,0,1,11.14,20,48.22,48.22,0,0,1-1,18.13,147.06,147.06,0,0,1-5.53,17.4,34.37,34.37,0,0,0-2,7,11.58,11.58,0,0,0,1,7.09,10.78,10.78,0,0,0,6.48,4.92,15.54,15.54,0,0,0,8.15.1c2.67-.66,7.16-1.52,9.33-3.21,5.51-4.28,6.82-11.72,8.13-18.25,1.36-6.81.7-13.95-.5-20.83a140.06,140.06,0,0,0-7.88-27.41,95.6,95.6,0,0,0-9.79-18.52c-3.85-5.66-9.31-10.09-13.34-15.63-1.4-1.93-3.09-3.93-4.47-5.88-3-4.2-2.29-3.41-4.13-6.13-1.34-2-3.45-2.65-5.67-3.51a10.43,10.43,0,0,0-13.81,5.61,16,16,0,0,0-1,9.22,33,33,0,0,0,4.55,11.19,40.07,40.07,0,0,0,8.53,10.65c3.67,3.06,8.1,5.07,11.82,8.06"
              transform="translate(0 0)" fill="#020204"/>
        <path id="path14967-1-0"
              d="M73.48,117.1c-7.07,8-14.35,15.81-18.34,24.5-2,4.42-2.91,9.21-4.27,13.85a103.62,103.62,0,0,1-6,15.34c-2.16,4.58-4.55,9.06-6.94,13.53-1.73,3.26-3.5,6.59-4.1,10.23a21,21,0,0,0,.53,8.66,39.92,39.92,0,0,0,3.24,8.11,79.74,79.74,0,0,0,24.24,27.92,85.3,85.3,0,0,0,14.6,8.53,22.57,22.57,0,0,0,8.77,2.46,10.89,10.89,0,0,0,4.48-.84,8,8,0,0,0,3.48-2.89,8.38,8.38,0,0,0,1.17-5.41,13,13,0,0,0-1.92-5.26c-2.39-3.92-6.16-6.76-9.79-9.57C74.82,220.18,67.23,213.78,60,207a29.81,29.81,0,0,1-5.53-6.29A23.57,23.57,0,0,1,51.79,193a42.65,42.65,0,0,1,1.46-22.13c1-2.76,2.27-5.39,3.51-8,2.17-4.59,4.21-9.27,7.05-13.47,3.54-5.23,8.27-9.66,11.15-15.28,2.44-4.74,3.42-10.07,4.37-15.31.73-4.11,2.15-8.13,2.87-12.24-1.41,2.67-5.94,7.05-8.72,10.53Z"
              transform="translate(0 0)" fill="#020204"/>
    </g>
    <g id="g514">
        <g clip-path="url(#clip-path-3)">
            <g id="path29705-9" filter="url(#filter14666-9)">
                <path d="M173.79,138.08c.5.47,1,.94,1.53,1.38,3.73,3,5.72,6.48,9.51,9.47,6.19,4.9,12.48,13.35,13.69,21.06.95,6-.3,9.29-1.83,16.39s-5.88,17.15-8.22,24c-.94,2.73,1.89,1.61,1.52,4.48a17.35,17.35,0,0,0,0,4.26c0-.27,0-.55.07-.82a52.17,52.17,0,0,1,3-11.39c2.52-7.13,5.41-14.11,7.4-21.41a40.18,40.18,0,0,0,.73-18.85,31.72,31.72,0,0,0-12.41-20c-4.6-3.4-10-5.58-14.92-8.56Z"
                      transform="translate(0 0)" fill="#838384"/>
            </g>
        </g>
        <g clip-path="url(#clip-path-4)">
            <g id="path15007-0" opacity="0.95" filter="url(#filter15053-7)" style="isolation:isolate">
                <path d="M65.34,146.33a33,33,0,0,0-6,7.32c-2.67,4.46-4.24,9.47-6.18,14.29-1.44,3.59-3.12,7.19-3.33,11.06-.1,2,.19,4,.26,5.95a11,11,0,0,1-1.09,5.78,7,7,0,0,1-3.73,3.15,11,11,0,0,1,5.33,3.86c1.12,1.5,1.83,3.25,2.8,4.85A13,13,0,0,0,56.39,206a8.43,8.43,0,0,0,4.12,1.81A7.3,7.3,0,0,0,66.28,206a135,135,0,0,1,5.15-53.8,16.17,16.17,0,0,0,.77-3.34,4.78,4.78,0,0,0-.83-3.26,3.54,3.54,0,0,0-1.43-1.11,3.53,3.53,0,0,0-3.47.42,3.54,3.54,0,0,0-1.13,1.41h0"
                      transform="translate(0 0)" fill="#7c7c7c"/>
            </g>
        </g>
    </g>
    <g id="g457">
        <g id="g444">
            <g id="path14483-7-4" opacity="0.2" filter="url(#filter15115-3)" style="isolation:isolate">
                <path d="M229.07,250.19a16.62,16.62,0,0,1-2.11,4.42c-2,3-5,5.27-7.93,7.37-5,3.56-10.27,6.83-15,10.89a76.33,76.33,0,0,0-8.65,9,85.08,85.08,0,0,1-7,8.06,24.5,24.5,0,0,1-9,5.53,21.86,21.86,0,0,1-12.15.26,12.59,12.59,0,0,1-7-4.1c-1.69-2.2-2.24-5.15-2.43-8.05a89.87,89.87,0,0,1,.82-15.58c.46-4.32.89-8.65,1.07-13a131.45,131.45,0,0,0-1.27-23.27,17.4,17.4,0,0,1-.26-3.89,5.65,5.65,0,0,1,4.71-5.47,17.37,17.37,0,0,1,3.59-.32,73.73,73.73,0,0,1,8.41,0c1.75.16,3.46.48,5.21.64A23.21,23.21,0,0,0,189,222c3.15-.92,6.15-2.65,9.34-3.13a13.84,13.84,0,0,1,3.91,0,7.26,7.26,0,0,1,3.59,1.34,6.56,6.56,0,0,1,1.75,2.31,14.7,14.7,0,0,1,1.28,4.26,37.07,37.07,0,0,0,.61,4,11.59,11.59,0,0,0,3.36,5.34,32.78,32.78,0,0,0,5.09,3.73,57.11,57.11,0,0,0,5.46,3.18c.89.44,1.8.83,2.66,1.33a7,7,0,0,1,2.2,1.94,5.45,5.45,0,0,1,.85,4h0"
                      transform="translate(0 0)" fill="url(#linear-gradient)"/>
            </g>
            <path id="path14296-0"
                  d="M246.2,258.68c-2.62,3.11-6.27,5.17-9.89,7-6.19,3.15-12.61,5.92-18.42,9.71A75.5,75.5,0,0,0,207,284.16a86.94,86.94,0,0,1-8.84,8,25.32,25.32,0,0,1-11,4.65,26.31,26.31,0,0,1-14.3-2.16c-3.13-1.37-6.15-3.32-8-6.23s-2.23-6.49-2.23-9.92c0-6.08,1.12-12.09,2.18-18.08.88-5,1.72-10,2.26-15a155.18,155.18,0,0,0,.32-27.52,20.81,20.81,0,0,1,0-4.6,5.84,5.84,0,0,1,6-5.45,20.87,20.87,0,0,1,4.24.35,89.25,89.25,0,0,1,9.89,1.71c2,.54,4,1.26,6.07,1.82a27.88,27.88,0,0,0,10.47.95c3.77-.44,7.43-1.86,11.22-1.77a16.69,16.69,0,0,1,4.59.8,9.77,9.77,0,0,1,4.12,2.3,8.9,8.9,0,0,1,1.88,3.07,18.78,18.78,0,0,1,1.17,5.25,44.32,44.32,0,0,0,.41,4.75,15.57,15.57,0,0,0,3.53,6.94,45.5,45.5,0,0,0,5.69,5.41c2,1.68,4,3.35,6.17,4.83,1,.69,2.06,1.34,3,2.1a9.42,9.42,0,0,1,2.44,2.71,6.14,6.14,0,0,1,.54,4.88,13.79,13.79,0,0,1-2.67,4.69Z"
                  transform="translate(0 0)" fill="url(#linear-gradient-2)"/>
            <g clip-path="url(#clip-path-5)">
                <g id="path14296-3-7" filter="url(#filter14416-8)">
                    <path d="M245.9,250.79a15.33,15.33,0,0,1-2.57,4.26c-2.4,2.81-5.73,4.65-9,6.31-5.65,2.83-11.5,5.32-16.82,8.73a70.2,70.2,0,0,0-9.92,7.86,77.44,77.44,0,0,1-8.06,7.21,23.32,23.32,0,0,1-10,4.18,24.47,24.47,0,0,1-13.06-1.94,15.64,15.64,0,0,1-7.27-5.6c-1.64-2.62-2-5.83-2-8.93,0-5.46,1-10.87,2-16.24.81-4.47,1.58-8.95,2.07-13.47a142.82,142.82,0,0,0,.29-24.73,19.1,19.1,0,0,1,0-4.14,5.32,5.32,0,0,1,5.42-4.92,19.5,19.5,0,0,1,3.88.33,88.67,88.67,0,0,1,9,1.54c1.86.49,3.68,1.14,5.54,1.63a25.75,25.75,0,0,0,9.56.86c3.44-.4,6.79-1.67,10.25-1.59a15.73,15.73,0,0,1,4.19.72,8.94,8.94,0,0,1,3.76,2.06,8.61,8.61,0,0,1,1.72,2.76,13.08,13.08,0,0,1,1.07,4.72,43.17,43.17,0,0,0-.11,5.08,9.62,9.62,0,0,0,1.5,3.8,29.62,29.62,0,0,0,2.52,3.27,33.27,33.27,0,0,0,5.6,5.65c2.45,1.77,5.36,2.81,7.89,4.47a7.34,7.34,0,0,1,2,1.78,4.74,4.74,0,0,1,.62,4.34h0"
                          transform="translate(0 0)" fill="#cd8907"/>
                </g>
            </g>
            <g clip-path="url(#clip-path-6)">
                <g id="path14296-3-1-9" filter="url(#filter14432-2)">
                    <path d="M245.55,249a18.67,18.67,0,0,1-2.64,4.3,22,22,0,0,1-9.29,6.38c-5.76,2.17-12.05,2.47-17.71,4.95a61.37,61.37,0,0,0-9.69,5.93,48.17,48.17,0,0,1-7.92,4.63,40.38,40.38,0,0,1-9.86,2.69,30.47,30.47,0,0,1-6.46.47,13.92,13.92,0,0,1-6.23-1.72,8.72,8.72,0,0,1-3.52-3.6,12.71,12.71,0,0,1-1-5.73c.05-5.23,1.17-10.4,1.14-15.64,0-4.55-.94-9-1.19-13.59-.5-8.75,1.37-17.64-.28-26.22a20.77,20.77,0,0,1-.6-4.15,5.94,5.94,0,0,1,.36-2.05,3.78,3.78,0,0,1,1.17-1.65,3.51,3.51,0,0,1,1.51-.65,5.31,5.31,0,0,1,1.64,0,25.41,25.41,0,0,1,3.17.91c3,.9,6.21.88,9.28,1.56,1.93.42,3.79,1.12,5.7,1.64a25.89,25.89,0,0,0,9.82.87c3.53-.42,7-1.7,10.53-1.61a16.63,16.63,0,0,1,4.3.73,8.91,8.91,0,0,1,3.87,2.08,9.37,9.37,0,0,1,1.76,2.79,11.89,11.89,0,0,1,1.1,4.77c0,.86-.14,1.71-.22,2.56a7.57,7.57,0,0,0,.11,2.56,6.52,6.52,0,0,0,1.12,2.27c.49.68,1.05,1.31,1.55,2a42.88,42.88,0,0,1,3.54,6.15,19.46,19.46,0,0,0,4.09,5.7c2.38,2.06,5.47,2.88,8.12,4.51a7.12,7.12,0,0,1,2.07,1.8,4.78,4.78,0,0,1,.84,2.1,5,5,0,0,1-.2,2.28h0"
                          transform="translate(0 0)" fill="#f5c021"/>
                </g>
            </g>
            <g clip-path="url(#clip-path-5)">
                <g id="path16493" filter="url(#filter17044)">
                    <path d="M170.32,210.71c3.28-.88,6.07,1.6,8.44,3.47,1.54,1.31,3.76,1,5.64,1,3.12-.12,6.23.52,9.35.13,6.14-.52,12.17-2,18.34-2.29,2.95-.18,6.26-.35,8.81,1.37,1,.71,2.54,3.74,3.56,2.6a8.61,8.61,0,0,0-5.93-7.1c-2.48-.39-5,.29-7.49.07-7.43-.18-14.8-1.55-22.24-1.16-5.17.05-10.34-.19-15.51-.4-2-.41-2.75,1.39-3.85,2.09"
                          transform="translate(0 0)" fill="url(#linear-gradient-3)"/>
                </g>
            </g>
        </g>
        <g id="g411">
            <path id="path4635-1"
                  d="M40.59,203.08a9.15,9.15,0,0,1,5.1-.47,12.71,12.71,0,0,1,4.74,2c2.87,2,5,4.78,7,7.58,4.67,6.44,9.16,13,13.24,19.83C74,237.58,77,243.3,80.86,248.5c2.5,3.39,5.31,6.54,7.82,9.92a34.19,34.19,0,0,1,5.84,11.12,22.32,22.32,0,0,1-1.63,15.95,21.14,21.14,0,0,1-7.77,8.34,20.15,20.15,0,0,1-11,2.87c-6.11-.23-11.7-3.29-17.38-5.55-11.58-4.61-24.16-6.06-36.1-9.65-3.67-1.11-7.27-2.41-11-3.43a32.72,32.72,0,0,1-4.86-1.55A8.34,8.34,0,0,1,.93,273.3,7.22,7.22,0,0,1,0,269.52a12.16,12.16,0,0,1,.77-3.86c.9-2.47,2.35-4.71,3.32-7.15a29.92,29.92,0,0,0,1.67-12.68c-.21-4.29-.91-8.55-1.2-12.83a22.48,22.48,0,0,1,.18-5.74,9.51,9.51,0,0,1,2.56-5,9.45,9.45,0,0,1,4.7-2.32,23.3,23.3,0,0,1,5.28-.34,49.31,49.31,0,0,0,5.3,0,12,12,0,0,0,5.07-1.42,11.94,11.94,0,0,0,3.65-3.43,41.91,41.91,0,0,0,2.6-4.32,27.28,27.28,0,0,1,2.75-4.22,10.45,10.45,0,0,1,3.94-3.07"
                  transform="translate(0 0)" fill="url(#linear-gradient-4)"/>
            <g clip-path="url(#clip-path-8)">
                <g id="path13596-6" filter="url(#filter14148-8)">
                    <path d="M43.12,205.84a7.84,7.84,0,0,1,4.62-.3,10.85,10.85,0,0,1,4.19,2c2.48,1.92,4.2,4.62,5.86,7.27,4,6.44,7.85,12.94,11.51,19.57,2.78,5,5.43,10.09,8.84,14.68,2.26,3,4.85,5.83,7.16,8.84a29.74,29.74,0,0,1,5.39,9.93A19.57,19.57,0,0,1,89.2,282.1,19,19,0,0,1,82,289.61a18.48,18.48,0,0,1-10.09,2.49c-5.6-.25-10.71-3.05-16-5-10.1-3.66-21-4.16-31.41-7-3.72-1-7.34-2.35-11.07-3.29a34.12,34.12,0,0,1-4.91-1.42,8,8,0,0,1-3.89-3.17,6.79,6.79,0,0,1-.85-3.65,11.41,11.41,0,0,1,.81-3.69c.9-2.37,2.32-4.51,3.23-6.88a26.41,26.41,0,0,0,1.29-11.32c-.25-3.83-.92-7.61-1.15-11.44a19.41,19.41,0,0,1,.23-5.11,8.77,8.77,0,0,1,2.29-4.52,8.91,8.91,0,0,1,5-2.3,22.9,22.9,0,0,1,5.55,0,38.34,38.34,0,0,0,5.56.26A10.45,10.45,0,0,0,31.87,222a10.48,10.48,0,0,0,3.25-3.8,38.25,38.25,0,0,0,2-4.61,21.52,21.52,0,0,1,2.23-4.51,8.66,8.66,0,0,1,3.8-3.24"
                          transform="translate(0 0)" fill="#d99a03"/>
                </g>
            </g>
            <g clip-path="url(#clip-path-8)">
                <g id="path4635-2-4" filter="url(#filter14140-3)">
                    <path d="M41.77,202.21a7.23,7.23,0,0,1,4.61-.53,9.91,9.91,0,0,1,4.2,2.06c2.43,2,4,4.79,5.42,7.55,3.3,6.34,6.38,12.81,10.33,18.78,2.87,4.33,6.18,8.37,9.09,12.67,3.93,5.85,7.13,12.28,8.45,19.16.89,4.63.86,9.63-1.37,13.81a15.36,15.36,0,0,1-6.66,6.4,17.26,17.26,0,0,1-9.19,1.71c-5-.44-9.46-2.87-14.12-4.57-8.27-3-17.22-3.74-25.73-6-3.6-1-7.11-2.2-10.75-3a30.85,30.85,0,0,1-4.78-1.16,7,7,0,0,1-3.77-2.95,6,6,0,0,1-.66-3.3,10.76,10.76,0,0,1,.87-3.28c.89-2.1,2.2-4,2.89-6.18,1-3.19.6-6.64-.16-9.89s-1.86-6.44-2.2-9.76a13.5,13.5,0,0,1,.19-4.44,7.81,7.81,0,0,1,2.11-3.87,8.73,8.73,0,0,1,5.28-2.19,24.17,24.17,0,0,1,5.82.34,30.77,30.77,0,0,0,5.82.49,9.52,9.52,0,0,0,5.45-1.79,9.27,9.27,0,0,0,3-4.75,31.84,31.84,0,0,0,.94-5.59,20.82,20.82,0,0,1,1.23-5.53,8.08,8.08,0,0,1,3.69-4.22"
                          transform="translate(0 0)" fill="#f5bd0c"/>
                </g>
            </g>
            <g id="path4792-8" filter="url(#filter14176-5)">
                <path d="M59.42,218c2.61,4.72,4.19,10.12,6.78,14.88,2.38,4.37,5.08,8.87,7.5,12.9,1.08,1.8,3.58,4.56,6.12,8.84,2.3,3.88,4.62,9.3,5.92,11.12-.75-2.13-2.28-7.85-4.11-11.93-1.71-3.8-3.7-6-4.93-8-2.42-4-5-7.65-7.5-11.5-3.42-5.3-6-11.23-9.78-16.28Z"
                      transform="translate(0 0)" fill="url(#linear-gradient-5)"/>
            </g>
        </g>
    </g>
    <g id="g526">
        <g id="path29714-8-2" opacity="0.35" filter="url(#filter14897-2)" style="isolation:isolate">
            <path d="M214.5,217.7a5.39,5.39,0,0,0-2.73-2.4,9.19,9.19,0,0,0-3.64-.62c-2.47,0-4.93.66-7.4.45a40.55,40.55,0,0,1-6.09-1.46,12.86,12.86,0,0,0-6.4-.14,9.4,9.4,0,0,0-5.42,4.05,12.6,12.6,0,0,0-1.76,5.78,33.58,33.58,0,0,0,.22,6.09,30.25,30.25,0,0,0,.66,4.35,11.71,11.71,0,0,0,1.77,4,10.75,10.75,0,0,0,5.07,3.67,14,14,0,0,0,10.13-.17A28,28,0,0,0,212.28,229a25.84,25.84,0,0,0,2.38-6.17,11.42,11.42,0,0,0,.38-2.6,5.6,5.6,0,0,0-.54-2.55"
                  transform="translate(0 0)" fill="url(#radial-gradient-4)"/>
        </g>
        <g id="path29714-8-3-0" opacity="0.35" filter="url(#filter14951-8)" style="isolation:isolate">
            <path d="M214.5,214.55a5.15,5.15,0,0,0-2.73-1.74,12.89,12.89,0,0,0-3.64-.45c-2.47,0-4.93.48-7.4.33a54.21,54.21,0,0,1-6.09-1.06,17.89,17.89,0,0,0-6.4-.1,9.69,9.69,0,0,0-5.42,2.93,7.42,7.42,0,0,0-1.76,4.17,17.66,17.66,0,0,0,.22,4.41,16.51,16.51,0,0,0,.66,3.15,7.56,7.56,0,0,0,1.77,2.9,11.44,11.44,0,0,0,5.07,2.66,19.24,19.24,0,0,0,10.13-.13c5.66-1.78,10.45-5,13.37-8.89a16.06,16.06,0,0,0,2.38-4.46,6.17,6.17,0,0,0,.38-1.88,3.11,3.11,0,0,0-.54-1.84"
                  transform="translate(0 0)" fill="url(#radial-gradient-5)"/>
        </g>
    </g>
    <g id="g545">
        <path id="path29714-5-4"
              d="M219.2,207.39a7.43,7.43,0,0,0-2-2.87,10.56,10.56,0,0,0-3-1.85,33.08,33.08,0,0,0-6.84-1.7c-2.17-.41-4.34-.9-6.52-1.27a17.67,17.67,0,0,0-6.87-.13,11.72,11.72,0,0,0-5.27,2.82,15.15,15.15,0,0,0-3.49,4.89,21.13,21.13,0,0,0-1.65,10.4A12.57,12.57,0,0,0,186.2,225a11.34,11.34,0,0,0,5.43,3.22,18.36,18.36,0,0,0,10.86-.15,28.58,28.58,0,0,0,14.33-10.78,15.75,15.75,0,0,0,2.56-5.41,8,8,0,0,0-.18-4.51"
              transform="translate(0 0)" fill="#020204"/>
        <g clip-path="url(#clip-path-10)">
            <g id="path29714-3-9-9" filter="url(#filter14812-5)">
                <path d="M195.23,198.52a12.49,12.49,0,0,0-10.06,6,12.37,12.37,0,0,0-1.66,7.16,11.19,11.19,0,0,1,1.38-5,10.25,10.25,0,0,1,6.93-5.07,18.05,18.05,0,0,1,5.44.1c1.73.21,3.48.44,5.19.81a20.46,20.46,0,0,1,7.47,3,7.24,7.24,0,0,1,1.4,1.25,3.66,3.66,0,0,1,.85,1.66,3.94,3.94,0,0,1-.53,2.65,10.28,10.28,0,0,1-1.72,2.16c-.53.53-1.1,1-1.66,1.53a18.67,18.67,0,0,0,7.28-2.69,7.18,7.18,0,0,0,2.25-2.34,4.41,4.41,0,0,0,.5-3.19,4.62,4.62,0,0,0-1.06-1.94,9.28,9.28,0,0,0-1.69-1.43,20,20,0,0,0-9.06-3.47c-2.08-.38-4.18-.71-6.28-1a27.58,27.58,0,0,0-5-.28Z"
                      transform="translate(0 0)" fill="url(#radial-gradient-6)"/>
            </g>
        </g>
        <g clip-path="url(#clip-path-10)">
            <g id="path29714-3-9-3-8" filter="url(#filter14812-0-9)">
                <path d="M195.23,198.52a12.49,12.49,0,0,0-10.06,6,12.37,12.37,0,0,0-1.66,7.16,11.19,11.19,0,0,1,1.38-5,10.25,10.25,0,0,1,6.93-5.07,18.05,18.05,0,0,1,5.44.1c1.73.21,3.48.44,5.19.81a20.46,20.46,0,0,1,7.47,3,7.24,7.24,0,0,1,1.4,1.25,3.66,3.66,0,0,1,.85,1.66,3.94,3.94,0,0,1-.53,2.65,10.28,10.28,0,0,1-1.72,2.16c-.53.53-1.1,1-1.66,1.53a18.67,18.67,0,0,0,7.28-2.69,7.18,7.18,0,0,0,2.25-2.34,4.41,4.41,0,0,0,.5-3.19,4.62,4.62,0,0,0-1.06-1.94,9.28,9.28,0,0,0-1.69-1.43,20,20,0,0,0-9.06-3.47c-2.08-.38-4.18-.71-6.28-1a27.58,27.58,0,0,0-5-.28Z"
                      transform="translate(0 0)" fill="url(#linear-gradient-6)"/>
            </g>
        </g>
    </g>
    <g id="g777">
        <g id="g669">
            <g id="g643">
                <path id="path28795-9-5"
                      d="M97.24,44.42a7.73,7.73,0,0,0-4.78,2.14,10.8,10.8,0,0,0-2.79,4.51c-1.13,3.38-.88,7-.62,10.6a31.12,31.12,0,0,0,1.68,9.51,12.37,12.37,0,0,0,2.58,4.06,8.85,8.85,0,0,0,4.12,2.43,8.22,8.22,0,0,0,4.48-.16,9.76,9.76,0,0,0,3.85-2.34A12.84,12.84,0,0,0,109,69.49a22.72,22.72,0,0,0,.75-6.57,27.53,27.53,0,0,0-1.26-8.16,18.47,18.47,0,0,0-4.18-7.09,11.55,11.55,0,0,0-3.2-2.39,7.93,7.93,0,0,0-3.88-.86"
                      transform="translate(0 0)" fill="url(#radial-gradient-7)"/>
                <g id="g605">
                    <path id="path29453-9"
                          d="M93,59.17a13.53,13.53,0,0,0,.39,6.75,11.41,11.41,0,0,0,2.37,3.8A8,8,0,0,0,98,71.52a3.94,3.94,0,0,0,5.09-1.13A7.44,7.44,0,0,0,104.33,68a13.45,13.45,0,0,0-.12-7.92,10.32,10.32,0,0,0-3-4.93,6,6,0,0,0-2.45-1.29,4.36,4.36,0,0,0-2.74.22,4.78,4.78,0,0,0-2.15,2.16,10.13,10.13,0,0,0-.89,3"
                          transform="translate(0 0)" fill="#020204"/>
                    <g id="path29465-8" filter="url(#filter29493-2)">
                        <path d="M97.7,57.55c.24.63,1,.86,1.5,1.37a5.78,5.78,0,0,1,1.12,1.63c.46,1.18-.44,2.92.5,3.75a1,1,0,0,0,1.19,0c1.15-1,.89-3.14.44-4.63a5.61,5.61,0,0,0-2.68-3.25c-.58-.3-1.45-.54-2-.12A1.21,1.21,0,0,0,97.7,57.55Z"
                              transform="translate(0 0)" fill="url(#linear-gradient-7)"/>
                    </g>
                </g>
                <g clip-path="url(#clip-path-12)">
                    <path id="path29551-9"
                          d="M93.4,51.59a15,15,0,0,1,9.07-1.68,55.3,55.3,0,0,1,9.14,2,40.22,40.22,0,0,1,6.53,2.14,11.44,11.44,0,0,1,5.14,4.4c.18.32.34.65.54,1a3.13,3.13,0,0,0,.71.83,1.62,1.62,0,0,0,1,.34,1.2,1.2,0,0,0,.52-.15,1,1,0,0,0,.38-.39,1.21,1.21,0,0,0,.12-.62,2.62,2.62,0,0,0-.12-.62c-.75-2.76-2.53-5.09-3.89-7.6-.81-1.51-1.47-3.1-2.3-4.6a29.22,29.22,0,0,0-12.7-11.85,43.76,43.76,0,0,0-17-4.24,88.41,88.41,0,0,0-20.33,1.59,26.5,26.5,0,0,0-8.44,2.57,11.35,11.35,0,0,0-3.39,2.81,8.47,8.47,0,0,0-1.79,4,8.62,8.62,0,0,0,.51,4.2,12.87,12.87,0,0,0,2.15,3.66,53.64,53.64,0,0,0,6.22,5.83A60,60,0,0,0,72,60.77a13.65,13.65,0,0,0,3.84,1.81,9.14,9.14,0,0,0,4.22.21,9.86,9.86,0,0,0,4-1.91,21.9,21.9,0,0,0,3.15-3.09c1.92-2.24,3.72-4.69,6.25-6.2"
                          transform="translate(0 0)" fill="url(#radial-gradient-8)"/>
                </g>
                <g id="path28795-9-2-2" filter="url(#filter29447-1)">
                    <path d="M104.57,42.44a23.61,23.61,0,0,1,5.63,8.31c-.55-3.38-1.42-6.1-3.63-8.31A16.84,16.84,0,0,0,102,39.28a12.28,12.28,0,0,0-4.18-1.12c-1,0-1.2,0-1.4,0s-.36,0,.27.09a14.12,14.12,0,0,1,3.54,1.13A16.4,16.4,0,0,1,104.57,42.44Z"
                          transform="translate(0 0)" fill="url(#linear-gradient-8)"/>
                </g>
            </g>
            <g id="g652">
                <path id="path28795-3"
                      d="M128.76,44.42a16.42,16.42,0,0,0-6.25,7.75c-1.43,4-.88,8.49.5,12.5s3.8,8,7.38,10.52a13.63,13.63,0,0,0,6,2.34,11,11,0,0,0,6.34-1.11A12.12,12.12,0,0,0,148,70.64a21,21,0,0,0,1.74-7.72,26.07,26.07,0,0,0-1.25-10A16.77,16.77,0,0,0,142,44.26a12.59,12.59,0,0,0-5.11-1.94,11,11,0,0,0-5.42.6,13.84,13.84,0,0,0-2.75,1.5"
                      transform="translate(0 0)" fill="url(#radial-gradient-9)"/>
                <g id="g613">
                    <path id="path28879-6"
                          d="M135.17,52.82a6.4,6.4,0,0,0-2.95,1A7.85,7.85,0,0,0,130,56a11.31,11.31,0,0,0-1.8,5.94,12.62,12.62,0,0,0,.63,4.65,8.87,8.87,0,0,0,2.62,3.86,7.48,7.48,0,0,0,4.42,1.72,7.39,7.39,0,0,0,4.56-1.3A8.09,8.09,0,0,0,142.93,68a10.86,10.86,0,0,0,1.14-3.65A11.33,11.33,0,0,0,143,57.72a9.25,9.25,0,0,0-4.93-4.45,7,7,0,0,0-2.89-.45"
                          transform="translate(0 0)" fill="#020204"/>
                    <g id="path28891-5" filter="url(#filter28927-8)">
                        <path d="M137.67,59.67c-.87.35-2.24.13-2.62,1a1.3,1.3,0,0,0,.61,1.54,2.65,2.65,0,0,0,3-1.37,1.15,1.15,0,0,0-.54-1.35C138,59.4,137.83,59.61,137.67,59.67Z"
                              transform="translate(0 0)" fill="#141413"/>
                    </g>
                    <g id="path28887-6" filter="url(#filter28949-8)">
                        <path d="M141.64,61.92c1.16-1.16-.83-4.23-2.38-5.5-1.12-.91-4.39-1.86-4.25-.87s1.61,2.27,2.6,3.24C138.82,60,141.09,62.48,141.64,61.92Z"
                              transform="translate(0 0)" fill="url(#linear-gradient-9)"/>
                    </g>
                </g>
                <g clip-path="url(#clip-path-13)">
                    <path id="path28972-5"
                          d="M118.26,54.55a23.85,23.85,0,0,1,8.12-4.4,22.42,22.42,0,0,1,18.38,2.27,65.43,65.43,0,0,1,5.24,4,20.11,20.11,0,0,0,5.64,3.37,8.21,8.21,0,0,0,3.5.5,6.46,6.46,0,0,0,3-1.12,7.5,7.5,0,0,0,2.18-2.34,10.25,10.25,0,0,0,1.28-6.2c-.38-4.28-2.8-8-4.82-11.84a33.62,33.62,0,0,0-2-3.5,19.36,19.36,0,0,0-10-6.95,63,63,0,0,0-12.14-2.3,22.58,22.58,0,0,0-5.5-.25A49,49,0,0,0,125,27.42c-1,.25-2,.43-2.93.71a7.79,7.79,0,0,0-2.69,1.29,6.52,6.52,0,0,0-2.18,3.73,11.89,11.89,0,0,0,0,4.37c.46,2.9,1.54,5.72,1.44,8.65-.07,2-.71,4-.63,6a8.59,8.59,0,0,0,.25,1.75"
                          transform="translate(0 0)" fill="url(#linear-gradient-10)"/>
                </g>
                <g id="path28795-92-2" filter="url(#filter29350-1)">
                    <path d="M138.42,36.19a10,10,0,0,0-1.25,2,17.58,17.58,0,0,1,6,2.56,24.25,24.25,0,0,1,8.12,9.62,8.91,8.91,0,0,0,1.19-1.59,24.49,24.49,0,0,0-8.31-10A17.87,17.87,0,0,0,138.42,36.19Z"
                          transform="translate(0 0)" fill="url(#linear-gradient-11)"/>
                </g>
            </g>
        </g>
        <g id="g735">
            <path id="path28849-2"
                  d="M105.61,67.92c1.77-2,3-4.41,4.68-6.45a11.12,11.12,0,0,1,3-2.62,6.65,6.65,0,0,1,3.81-.93A6.75,6.75,0,0,1,121,59.8a12,12,0,0,1,2.52,3.62,18.63,18.63,0,0,0,2,3.75A19,19,0,0,0,129,70.1a9.69,9.69,0,0,1,1.64,1.56,4.8,4.8,0,0,1,1,2,4.28,4.28,0,0,1-.19,2.27,5.06,5.06,0,0,1-1.26,1.91A7.38,7.38,0,0,1,126,79.7c-3,.43-6.12-.48-9.19-.39s-6.14,1.18-9.24,1.07a8.32,8.32,0,0,1-4.41-1.32,5.54,5.54,0,0,1-1.59-1.68,4.55,4.55,0,0,1-.68-2.21,5,5,0,0,1,.45-2.16,7.77,7.77,0,0,1,1.18-1.87c.94-1.15,2.09-2.11,3.07-3.22"
                  transform="translate(0 0)" fill="url(#radial-gradient-10)"/>
            <g id="g712">
                <path id="path28461-2"
                      d="M88.76,87.09a3.06,3.06,0,0,0,.33.84,3.94,3.94,0,0,0,1.07,1.12c.42.3.88.55,1.32.83a23.78,23.78,0,0,1,5.92,5.71c2.27,2.92,4.27,6.16,7.3,8.29a15.4,15.4,0,0,0,7.29,2.61,23.78,23.78,0,0,0,9.09-1,32.14,32.14,0,0,0,7.78-3.42c4.6-2.84,8.44-7,13.51-8.86,1.1-.4,2.26-.7,3.32-1.2a5.2,5.2,0,0,0,2.59-2.32,11.17,11.17,0,0,0,.63-3.32c.17-1.2.55-2.36.76-3.56a6,6,0,0,0-.28-3.57,4.65,4.65,0,0,0-2.1-2.08,7.14,7.14,0,0,0-2.91-.72,44.87,44.87,0,0,0-6,.6c-2.65.24-5.32-.1-8,0-3.31.1-6.57.85-9.88,1-3.77.18-7.53-.4-11.3-.55a23.49,23.49,0,0,0-4.89.22,11.41,11.41,0,0,0-4.55,1.76,44.44,44.44,0,0,0-3.56,3.18,9.37,9.37,0,0,1-2,1.35,5.16,5.16,0,0,1-2.31.54,3.83,3.83,0,0,0-1.22,0,1.67,1.67,0,0,0-.64.41,3.51,3.51,0,0,0-.48.6,11.19,11.19,0,0,0-.87,1.55"
                      transform="translate(0 0)" fill="url(#radial-gradient-11)"/>
                <g id="path28487-2" filter="url(#filter28502-8)">
                    <path d="M103.57,91.16A6.63,6.63,0,0,0,107.91,99a7.92,7.92,0,0,0,6.06-.63A6.68,6.68,0,0,0,116.64,96a4.49,4.49,0,0,0,.6-1.7,3.76,3.76,0,0,0-.18-1.79,3.86,3.86,0,0,0-1.15-1.59,5.13,5.13,0,0,0-1.73-1,11.09,11.09,0,0,0-3.94-.36,38.56,38.56,0,0,0-6,.76"
                          transform="translate(0 0)" fill="#d9b30d"/>
                </g>
                <g id="path27476-7-8" filter="url(#filter15145-6)">
                    <path d="M97.08,78.74c-1.34.79-2.63,1.67-3.9,2.57A4.69,4.69,0,0,0,91.5,83a4,4,0,0,0-.31,1.67,14,14,0,0,1,0,1.71c0,.39-.15.77-.17,1.16a1.91,1.91,0,0,0,.06.58,1.22,1.22,0,0,0,.27.5A1.42,1.42,0,0,0,92,89c.24.08.49.11.74.17A7.25,7.25,0,0,1,95.78,91c.9.8,1.71,1.71,2.64,2.47a14.8,14.8,0,0,0,9.16,3,41.46,41.46,0,0,0,9.7-1.34,59.49,59.49,0,0,0,7.42-2,32.58,32.58,0,0,0,10.12-6A36.38,36.38,0,0,1,139,83.58c1.35-.84,2.85-1.39,4.21-2.2a2.64,2.64,0,0,0,.35-.23,1.06,1.06,0,0,0,.27-.33,1,1,0,0,0,0-.72,2,2,0,0,0-.36-.63,4.46,4.46,0,0,0-.57-.58,9,9,0,0,0-5.22-1.81c-1.87-.15-3.77,0-5.61-.35A36.39,36.39,0,0,1,127,75.25a38.15,38.15,0,0,0-5.39-1.31,35.8,35.8,0,0,0-13,.32,38,38,0,0,0-11.54,4.48"
                          transform="translate(0 0)" fill="#604405"/>
                </g>
                <path id="path27476-4"
                      d="M96.65,74.22a23.78,23.78,0,0,0-5.13,4.68,10.87,10.87,0,0,0-2,3.41,27.07,27.07,0,0,0-.66,3.07,5.7,5.7,0,0,0-.17,1.16,1.9,1.9,0,0,0,.09.58,1.32,1.32,0,0,0,.29.5,1.57,1.57,0,0,0,.86.43,7.78,7.78,0,0,0,1,.11,9.11,9.11,0,0,1,4,1.7c1.2.83,2.31,1.8,3.55,2.58a18.67,18.67,0,0,0,9.23,2.63,41.68,41.68,0,0,0,9.63-1,44.07,44.07,0,0,0,7.42-2,44.3,44.3,0,0,0,10.12-6A41,41,0,0,0,139,82.58c.44-.42.86-.85,1.33-1.24a4.85,4.85,0,0,1,1.57-.91,5.94,5.94,0,0,1,2.75-.05,9.6,9.6,0,0,0,2.07.24,3,3,0,0,0,1-.2,2.1,2.1,0,0,0,.84-.6,2,2,0,0,0,.44-1.27,2.54,2.54,0,0,0-.37-1.31,4.44,4.44,0,0,0-2.1-1.69,21.37,21.37,0,0,0-3.61-1.06,51.65,51.65,0,0,1-10.83-3.95c-1.72-.85-3.39-1.8-5.08-2.7a29.53,29.53,0,0,0-5.39-2.4,21.17,21.17,0,0,0-13,.59,27.7,27.7,0,0,0-12,8.19h0"
                      transform="translate(0 0)" fill="url(#linear-gradient-12)"/>
                <g id="path28357-7" filter="url(#filter14963-7)">
                    <path d="M126.25,75.14a1.83,1.83,0,0,0-.9-.59,2.51,2.51,0,0,0-1.09,0,5.13,5.13,0,0,0-2,.93,22.22,22.22,0,0,0-4.54,4.23,16.31,16.31,0,0,0-3.67,7.27,4.58,4.58,0,0,0-.07,1.38,2.13,2.13,0,0,0,.55,1.25,2,2,0,0,0,1.08.52,2.58,2.58,0,0,0,1.2-.13,6.15,6.15,0,0,0,2-1.34c3.33-3,6.35-6.57,7.56-10.88a5,5,0,0,0,.22-1.33,2,2,0,0,0-.4-1.26"
                          transform="translate(0 0)" fill="#f6da4a"/>
                </g>
                <g id="g681">
                    <g id="path28396-7" opacity="0.8" filter="url(#filter15177-1)" style="isolation:isolate">
                        <path d="M118.26,69c.23.74,1.43.62,2.12,1s1.1,1,1.78,1,1.66-.22,1.75-.87c.11-.85-1.14-1.39-1.94-1.7a4.05,4.05,0,0,0-3.32-.07c-.22.12-.46.41-.39.65Z"
                              transform="translate(0 0)" fill="url(#radial-gradient-12)"/>
                    </g>
                    <g id="path28398-7" opacity="0.8" filter="url(#filter15173-0)" style="isolation:isolate">
                        <path d="M106.84,68.53c-.89-.29-2.36,1.28-1.88,2.08.13.22.54.5.81.35s.74-1,1.18-1.34S107.18,68.64,106.84,68.53Z"
                              transform="translate(0 0)" fill="url(#radial-gradient-13)"/>
                    </g>
                </g>
                <g clip-path="url(#clip-path-14)">
                    <g id="path28570-8" filter="url(#filter28584-4)">
                        <path d="M149.25,80.24c-.22,2-1.68,3.54-3.25,3.54h0c-1.58,0-2.68-1.59-2.46-3.54s1.67-3.53,3.25-3.53,2.68,1.58,2.46,3.53Z"
                              transform="translate(0 0)" fill="url(#linear-gradient-13)"/>
                    </g>
                </g>
            </g>
        </g>
    </g>
</svg>
